<?xml version="1.0" encoding="UTF-8"?>
<svg id="Layer_1" xmlns="http://www.w3.org/2000/svg" version="1.1" viewBox="0 0 59 59">
  <!-- Generator: Adobe Illustrator 29.6.1, SVG Export Plug-In . SVG Version: 2.1.1 Build 9)  -->
  <g id="outline">
    <path d="M4.5,59h17.62c.38,0,.73-.22.9-.56l3.69-7.54h22.63c.55,0,1-.45,1-1s-.45-1-1-1h-2.33v-20.18c2.22-.99,3.21-3.59,2.23-5.81-.44-.99-1.23-1.78-2.23-2.23v-4.21c0-.55-.45-1-1-1s-1,.45-1,1v3.8h-7.43c-.2,0-.39-.06-.54-.18l-5.08-3.91c.12-.43.18-.87.19-1.32v-.36c1.39-1.3,2.19-3.12,2.19-5.02v-.87h2.48c.55,0,1-.45,1-1s-.45-1-1-1h-2.57C34.04,2.76,30.78-.18,26.95,0c-3.64.18-6.52,3.15-6.59,6.79v2.84h-6.03c-2.89-.02-5.24,2.32-5.26,5.21,0,1.64.75,3.19,2.06,4.19-.78.9-1.33,1.96-1.63,3.11l-1.93,7.8c-.79,3.18,1.15,6.4,4.34,7.19.47.12.95.17,1.43.17h.1l-6.25,19.68h-2.69c-.55,0-1,.45-1,1s.45,1,1,1h0ZM28.29,48.89h-2.2c-.38,0-.73.22-.9.56l-3.69,7.54h-1.1l-2.37-3.36,5.02-10.43c.27-.53.81-.86,1.41-.86l5.15.07-1.32,6.48ZM45.25,27.06h-.89v-4.79h.89c1.32-.09,2.46.92,2.55,2.24.09,1.32-.92,2.46-2.24,2.55-.1,0-.21,0-.31,0ZM45,29.07v19.82h-4.41l-2.84-3.89,2.15-6.25c.26-.76.21-1.59-.14-2.31-.35-.76-1-1.35-1.79-1.63l-6.5-2.24,1.06-5.17,1.27.77c1,.62,2.16.95,3.34.94h7.85v-.05ZM35.8,21.68c.51.38,1.13.59,1.77.59h4.78v4.79h-5.2c-.81,0-1.61-.23-2.3-.66l-2.48-1.51c-.28-.17-.63-.2-.93-.06-.3.13-.52.4-.58.72l-1.36,6.68h-3.58l1.9-8.46c.28-1.24.16-2.54-.34-3.71,1.39-.17,2.65-.9,3.5-2.01l4.83,3.62ZM16.88,18.36h5.02c2.22-.06,4.06,1.69,4.12,3.91,0,.34-.03.69-.1,1.02l-1.26,5.57h-14.81l1.56-6.27c.62-2.51,2.89-4.27,5.47-4.24ZM27.3,1.83c2.64,0,4.8,2.09,4.91,4.73h-9.82c.11-2.64,2.27-4.72,4.91-4.73ZM22.37,9.45v-.87h9.86v.87c0,1-.3,1.97-.86,2.79-.93-1.61-2.65-2.61-4.52-2.62h-4.47c0-.06-.01-.11-.01-.17h0ZM14.34,11.62h12.51c1.79,0,3.23,1.45,3.23,3.23s-1.45,3.23-3.23,3.23h-.65c-1.14-1.13-2.69-1.75-4.3-1.74h-5.02c-1.5,0-2.96.46-4.2,1.3-1.54-.9-2.06-2.88-1.16-4.42.58-1,1.66-1.61,2.82-1.6h0ZM10.23,33.72c-.62-.82-.89-1.85-.76-2.87h14.72l-.2.87c-.45,2.06-2.28,3.53-4.39,3.53h-6.31c-1.21,0-2.35-.55-3.11-1.5l.05-.03ZM15.55,37.26h4.1c2.23.01,4.32-1.13,5.51-3.01h5.02l7.17,2.47c.27.09.5.29.62.55.14.26.16.56.05.83l-2.32,6.75c-.1.31-.05.65.14.91l2.28,3.12h-7.79l1.51-7.25c.12-.54-.23-1.08-.77-1.19-.08-.02-.16-.02-.23-.02l-6.37-.09c-1.37,0-2.63.78-3.24,2.01l-5.27,10.95c-.16.32-.12.71.08,1l1.9,2.69h-8.63l6.25-19.73Z"/>
  </g>
</svg>