<?xml version="1.0" encoding="UTF-8"?>
<svg id="Layer_1" xmlns="http://www.w3.org/2000/svg" version="1.1" viewBox="0 0 59 59">
  <!-- Generator: Adobe Illustrator 29.6.1, SVG Export Plug-In . SVG Version: 2.1.1 Build 9)  -->
  <defs>
    <style>
      .st0 {
        fill-rule: evenodd;
      }
    </style>
  </defs>
  <g id="Layer_x5F_1">
    <g id="_597279520">
      <g id="Layer_24">
        <g>
          <g>
            <path id="_597286168" class="st0" d="M33.93,15.68c-.26,0-.51-.11-.7-.3-.16-.16-.25-.36-.43-.71-.31-.62-.89-1.77-2.09-3.28-.5-.63-.69-.84-.83-.98-.11-.11-.39-.37-.79-.67-.3.36-.65.66-1.04.9-1.16.72-2.29.69-3.2.67h-.06s-2.82-.07-5.79.14c-2.11.15-2.72.4-3.17.65-.41.23-1.17.65-1.52,1.43-.15.34-.2.67-.23.93-.02.15-.04.27-.07.4-.15.55-.57.77-.91.8-.21.02-.72-.01-1.07-.65-.09-.16-.17-.37-.25-.62-.14-.46-.26-1.03-.32-1.57-.22-2,.31-3.64.65-4.44.22-.52.87-1.86,2.24-3.19,2.37-2.29,5.19-2.87,7.06-3.26,1.56-.32,2.65-.37,4.02-.4,1.07-.02,2.33.02,3.61.55.65.27,1.13.59,1.5,1.01.28.32.4.58.53.87.07.15.15.32.27.56.31.59.5.95.81,1.27.14.15.19.18.39.29.21.13.5.3.99.66.59.45.99.74,1.41,1.25.27.33.84,1.01,1.06,2.03.14.65.08,1.16-.03,2-.07.55-.44,1.55-.55,1.84-.48,1.25-.72,1.62-1.17,1.76-.1.03-.2.05-.3.05h0ZM28.87,7.61c.45,0,.84.27,1.09.45l.03.02c.59.41,1.01.8,1.21.99.21.21.47.49,1,1.16.75.94,1.27,1.76,1.65,2.41.12-.36.22-.69.24-.85.1-.78.13-1.04.06-1.35-.13-.57-.46-.97-.67-1.23-.28-.34-.55-.54-1.09-.95-.4-.3-.63-.43-.81-.54-.25-.14-.48-.28-.79-.61-.5-.51-.77-1.04-1.12-1.7-.15-.29-.25-.5-.32-.66-.11-.24-.13-.29-.23-.4-.12-.14-.32-.32-.81-.52-.95-.39-1.93-.43-2.85-.41-1.31.03-2.28.07-3.68.36-1.76.36-4.17.86-6.14,2.77-1.15,1.11-1.68,2.24-1.81,2.56-.21.5-.52,1.43-.55,2.59.16-.18.33-.35.53-.51.43-.36.85-.59,1.11-.73.8-.44,1.7-.73,3.96-.88,3.07-.21,5.85-.15,5.97-.15h.07c.76.02,1.49.04,2.16-.38.35-.22.66-.53.9-.93.15-.25.39-.42.68-.49.08-.02.16-.02.23-.02h0Z"/>
            <path id="_597285904" class="st0" d="M23.74,31.35c-.63,0-1.35-.06-2.13-.23-.69-.15-2.49-.66-4.25-2.11-.84-.69-2.4-2.22-3.28-4.67-.24-.67-.4-1.39-.49-1.88-.62-.28-1.18-.69-1.66-1.23-.61-.68-1.04-1.51-1.23-2.39-.4-1.79.21-3.55,1.67-4.82.39-.34.99-.3,1.33.09.34.39.3.99-.09,1.33-1.26,1.1-1.21,2.35-1.07,3,.25,1.15,1.12,2.13,2.16,2.43.36.1.62.41.67.78.07.53.24,1.38.48,2.06.76,2.1,2.14,3.39,2.7,3.85,1.45,1.19,2.9,1.6,3.46,1.73,1.59.35,2.9.12,3.39,0,1.34-.32,2.24-.94,2.62-1.2.28-.19,1-.73,1.74-1.6,1.07-1.26,1.85-2.98,2.28-4.97.08-.38.38-.67.76-.73.41-.07.87-.43,1.24-.98.41-.6.67-1.36.72-2.08.06-.77-.1-1.75-1.15-2.09-.5-.16-.77-.69-.61-1.18.16-.5.69-.77,1.18-.61.89.29,1.59.86,2.01,1.65.35.67.51,1.49.44,2.37-.08,1.03-.45,2.13-1.04,2.99-.51.76-1.16,1.32-1.85,1.6-.51,2.08-1.37,3.84-2.55,5.24-.85,1.01-1.69,1.65-2.11,1.94-.43.3-1.58,1.08-3.26,1.48-.45.1-1.19.23-2.1.23h0Z"/>
            <path id="_597285160" class="st0" d="M18.11,34.96c-.14,0-.28-.03-.42-.1-.47-.23-.66-.8-.42-1.26.29-.58.78-1.75.81-3.04.01-.5-.05-.74-.16-1.12-.03-.1-.06-.22-.1-.35-.13-.5.17-1.02.68-1.15.5-.13,1.02.17,1.15.68.03.1.06.21.08.3.12.44.25.89.23,1.68-.04,1.65-.65,3.1-1.01,3.83-.17.33-.5.52-.85.52Z"/>
            <path id="_597284320" class="st0" d="M29.52,35.58c-.32,0-.63-.16-.81-.46-.62-1.03-1.37-2.65-1.42-4.51-.02-.79.11-1.25.23-1.68.03-.1.06-.2.08-.3.13-.5.64-.81,1.15-.68s.81.64.68,1.15c-.03.13-.07.25-.1.35-.11.38-.17.61-.16,1.12.04,1.45.65,2.75,1.15,3.59.27.45.12,1.02-.32,1.29-.15.09-.32.13-.48.13h0Z"/>
            <path id="_597284968" class="st0" d="M47.29,58.54H1.15c-.52,0-.94-.42-.94-.94,0-3.28.14-11.48,1.78-16.76.43-1.4.96-2.54,1.66-3.59.58-.88,2.27-3.1,5.27-4.63,2.76-1.4,5.39-1.61,7.12-1.54.23,0,.44.1.6.25l7.39,6.94,7.8-6.95c.16-.15.37-.23.59-.24,1.73-.07,4.36.14,7.12,1.54,3.01,1.53,4.69,3.75,5.27,4.63.7,1.05,1.22,2.19,1.66,3.59.75,2.42,1.27,5.73,1.56,9.84.15,2.22.23,4.61.22,6.92,0,.52-.42.94-.94.94h0ZM24.16,56.65h22.19c-.01-1.97-.09-3.97-.22-5.85-.27-3.96-.77-7.13-1.48-9.41-.39-1.24-.83-2.2-1.43-3.11-.5-.76-1.95-2.67-4.56-3.99-2.22-1.13-4.36-1.37-5.85-1.34l-8.19,7.3c-.36.32-.92.32-1.27-.02l-7.76-7.28c-1.49-.02-3.62.22-5.84,1.34-2.61,1.33-4.06,3.23-4.56,3.99-.6.91-1.04,1.87-1.43,3.11-.71,2.28-1.2,5.45-1.48,9.41-.13,1.87-.2,3.88-.22,5.85h22.07Z"/>
            <path id="_597284560" class="st0" d="M10.08,58.54c-.52,0-.94-.42-.94-.94v-10.86c0-.52.42-.94.94-.94s.94.42.94.94v10.86c0,.52-.42.94-.94.94Z"/>
            <path id="_597283672" class="st0" d="M39.12,58.54c-.52,0-.94-.42-.94-.94v-10.86c0-.52.42-.94.94-.94s.94.42.94.94v10.86c0,.52-.42.94-.94.94Z"/>
          </g>
          <path id="_597283840" class="st0" d="M42.9,31.38c-.52,0-.94-.42-.94-.94V3.74c0-.52.42-.94.94-.94s.94.42.94.94v26.69c0,.52-.42.94-.94.94Z"/>
          <path id="_597283336" class="st0" d="M57.62,18.35h-14.71c-.52,0-.94-.42-.94-.94V6.06c0-.36.2-.69.53-.84s.71-.12.99.1l14.71,11.35c.32.25.45.67.32,1.05-.13.38-.49.64-.89.64h0ZM43.85,16.46h11.01l-11.01-8.49v8.49Z"/>
          <path id="_597283480" class="st0" d="M28.87,55.13h-9.79c-.52,0-.94-.42-.94-.94v-11.52c0-.52.42-.94.94-.94h9.79c.52,0,.94.42.94.94v11.52c0,.52-.42.94-.94.94ZM20.03,53.25h7.91v-9.64h-7.91v9.64Z"/>
          <g>
            <path id="_597282064" class="st0" d="M25.69,46.59h-3.43c-.52,0-.94-.42-.94-.94s.42-.94.94-.94h3.43c.52,0,.94.42.94.94s-.42.94-.94.94h0Z"/>
            <path id="_597282160" class="st0" d="M25.69,49.37h-3.43c-.52,0-.94-.42-.94-.94s.42-.94.94-.94h3.43c.52,0,.94.42.94.94s-.42.94-.94.94h0Z"/>
            <path id="_597281704" class="st0" d="M25.69,52.15h-3.43c-.52,0-.94-.42-.94-.94s.42-.94.94-.94h3.43c.52,0,.94.42.94.94s-.42.94-.94.94h0Z"/>
          </g>
          <path id="_597281152" class="st0" d="M19.08,43.61c-.32,0-.63-.16-.81-.46l-6.24-10.41c-.27-.45-.12-1.02.32-1.29.45-.27,1.02-.12,1.29.32l6.24,10.41c.27.45.12,1.02-.32,1.29-.15.09-.32.13-.48.13Z"/>
          <path id="_597280576" class="st0" d="M28.87,43.61c-.16,0-.33-.04-.48-.13-.45-.27-.59-.84-.32-1.29l6.24-10.41c.27-.45.84-.59,1.29-.32.45.27.59.84.32,1.29l-6.24,10.41c-.17.29-.49.46-.81.46Z"/>
        </g>
      </g>
    </g>
  </g>
</svg>