<svg width="14" height="14" viewBox="0 0 14 14" fill="none" xmlns="http://www.w3.org/2000/svg">
<path fill-rule="evenodd" clip-rule="evenodd" d="M2.63623 4.31263C2.63623 3.81687 3.03812 3.415 3.53386 3.415L9.68902 3.415C10.1848 3.415 10.5866 3.81687 10.5866 4.31263V7.39021C10.5866 7.60267 10.4144 7.7749 10.2019 7.7749C9.98948 7.7749 9.81725 7.60267 9.81725 7.39021V4.31263C9.81725 4.2418 9.75984 4.1844 9.68902 4.1844L3.53386 4.1844C3.46303 4.1844 3.40563 4.2418 3.40563 4.31263L3.40563 10.4678C3.40563 10.5386 3.46303 10.596 3.53386 10.596H7.89376C8.10622 10.596 8.27846 10.7683 8.27846 10.9807C8.27846 11.1932 8.10622 11.3654 7.89376 11.3654H3.53386C3.03812 11.3654 2.63623 10.9635 2.63623 10.4678L2.63623 4.31263Z" fill="#0C0C0C"/>
<path fill-rule="evenodd" clip-rule="evenodd" d="M5.07265 3.415C5.28511 3.415 5.45734 3.58724 5.45734 3.7997L5.45734 10.9807C5.45734 11.1932 5.28511 11.3654 5.07265 11.3654C4.86018 11.3654 4.68795 11.1932 4.68795 10.9807L4.68795 3.7997C4.68795 3.58724 4.86018 3.415 5.07265 3.415Z" fill="#0C0C0C"/>
<path fill-rule="evenodd" clip-rule="evenodd" d="M8.15023 3.415C8.36269 3.415 8.53492 3.58724 8.53492 3.7997V8.1596C8.53492 8.37206 8.36269 8.5443 8.15023 8.5443C7.93776 8.5443 7.76553 8.37206 7.76553 8.1596L7.76553 3.7997C7.76553 3.58724 7.93776 3.415 8.15023 3.415Z" fill="#0C0C0C"/>
<path fill-rule="evenodd" clip-rule="evenodd" d="M4.68795 2.26091C4.68795 1.76517 5.08982 1.36328 5.58558 1.36328L7.6373 1.36328C8.13305 1.36328 8.53492 1.76517 8.53492 2.26091V3.7997C8.53492 4.01216 8.36269 4.1844 8.15023 4.1844C7.93776 4.1844 7.76553 4.01216 7.76553 3.7997V2.26091C7.76553 2.19008 7.70812 2.13268 7.6373 2.13268L5.58558 2.13268C5.51475 2.13268 5.45734 2.19008 5.45734 2.26091V3.7997C5.45734 4.01216 5.28511 4.1844 5.07265 4.1844C4.86018 4.1844 4.68795 4.01216 4.68795 3.7997V2.26091Z" fill="#0C0C0C"/>
<path fill-rule="evenodd" clip-rule="evenodd" d="M7.2526 9.69839C7.2526 8.21114 8.45823 7.00551 9.94548 7.00551C11.4327 7.00551 12.6384 8.21114 12.6384 9.69839C12.6384 11.1856 11.4327 12.3913 9.94548 12.3913C8.45823 12.3913 7.2526 11.1856 7.2526 9.69839ZM9.94548 7.7749C8.88316 7.7749 8.02199 8.63607 8.02199 9.69839C8.02199 10.7607 8.88316 11.6219 9.94548 11.6219C11.0078 11.6219 11.869 10.7607 11.869 9.69839C11.869 8.63607 11.0078 7.7749 9.94548 7.7749Z" fill="#0C0C0C"/>
<path fill-rule="evenodd" clip-rule="evenodd" d="M9.68902 8.5443C9.90148 8.5443 10.0737 8.71653 10.0737 8.929V9.57016H10.7149C10.9273 9.57016 11.0996 9.74239 11.0996 9.95486C11.0996 10.1673 10.9273 10.3396 10.7149 10.3396H9.68902C9.47655 10.3396 9.30432 10.1673 9.30432 9.95486L9.30432 8.929C9.30432 8.71653 9.47655 8.5443 9.68902 8.5443Z" fill="#0C0C0C"/>
<path fill-rule="evenodd" clip-rule="evenodd" d="M4.30325 10.596C4.51571 10.596 4.68795 10.7683 4.68795 10.9807V12.0066C4.68795 12.219 4.51571 12.3913 4.30325 12.3913C4.09079 12.3913 3.91856 12.219 3.91856 12.0066V10.9807C3.91856 10.7683 4.09079 10.596 4.30325 10.596Z" fill="#0C0C0C"/>
</svg>
