<svg width="150" height="48" viewBox="0 0 150 48" fill="none" xmlns="http://www.w3.org/2000/svg">
<g clip-path="url(#clip0_648_1022)">
<path fill-rule="evenodd" clip-rule="evenodd" d="M80.178 1.73124C80.0872 1.73124 79.9977 1.75265 79.9168 1.79372L71.3526 6.14035C71.3526 6.14036 71.3526 6.14035 71.3526 6.14035C70.9468 6.34636 70.476 6.38422 70.0425 6.24574M70.0425 6.24574L68.7811 5.84294C68.7811 5.84293 68.7811 5.84294 68.7811 5.84294C68.6562 5.80306 68.5215 5.80689 68.3991 5.8538L67.936 6.03127L69.6926 7.52867C69.8689 7.67891 70.1179 7.70921 70.325 7.60564L73.4887 6.02383C73.7737 5.88131 74.1203 5.99685 74.2629 6.2819C74.4054 6.56695 74.2898 6.91356 74.0048 7.05608L70.8412 8.63787C70.8412 8.63788 70.8412 8.63787 70.8412 8.63787C70.2197 8.94861 69.4727 8.85766 68.944 8.40701L66.4478 6.27927C66.2929 6.14718 66.219 5.94319 66.2534 5.74251C66.2879 5.54182 66.4255 5.37414 66.6157 5.30128L67.9861 4.77613C68.3533 4.63539 68.7575 4.62391 69.1322 4.74352L70.3936 5.14635C70.5381 5.19252 70.695 5.1799 70.8302 5.11125L79.3945 0.764579C79.6373 0.641382 79.9057 0.577148 80.178 0.577148L82.2101 0.577148C82.4101 0.577148 82.5958 0.680701 82.7009 0.850823C82.8061 1.02095 82.8156 1.23338 82.7262 1.41226L82.1288 2.60697C81.9613 2.942 81.6897 3.21363 81.3547 3.38115L77.8518 5.1326C77.5667 5.27512 77.2201 5.15958 77.0776 4.87453C76.9351 4.58949 77.0506 4.24287 77.3356 4.10035L80.8385 2.3489C80.9502 2.29305 81.0407 2.20253 81.0966 2.09085L81.2764 1.73124L80.178 1.73124" fill="#01032b"/>
<path fill-rule="evenodd" clip-rule="evenodd" d="M77.8637 4.10651C78.1453 4.25562 78.2528 4.60483 78.1037 4.88649L74.6414 11.4263C74.5403 11.6174 74.3408 11.7359 74.1247 11.7334C73.9086 11.7308 73.712 11.6077 73.6153 11.4144L71.6918 7.56744C71.6234 7.43055 71.6121 7.27208 71.6605 7.12689C71.7089 6.98169 71.813 6.86168 71.9499 6.79324L73.4887 6.02383C73.7737 5.88131 74.1203 5.99685 74.2629 6.2819C74.4054 6.56695 74.2898 6.91356 74.0048 7.05608L72.9821 7.56746L74.1461 9.89536L77.0837 4.3465C77.2328 4.06484 77.582 3.95739 77.8637 4.10651Z" fill="#01032b"/>
<path fill-rule="evenodd" clip-rule="evenodd" d="M69.4419 1.18766C69.5818 1.00525 69.8167 0.923295 70.0397 0.979054L76.1949 2.51784C76.504 2.59514 76.692 2.90844 76.6147 3.21761C76.5374 3.52679 76.2241 3.71477 75.9149 3.63748L71.0501 2.42126L72.3277 4.72091C72.4824 4.9995 72.3821 5.3508 72.1035 5.50558C71.8249 5.66035 71.4736 5.55997 71.3188 5.28139L69.3953 1.81911C69.2837 1.61814 69.302 1.37007 69.4419 1.18766Z" fill="#01032b"/>
<path d="M61.8247 6.92447V6.92447C52.5691 6.92447 43.4714 9.32298 35.4188 13.8861L27.3406 18.4638C23.7788 20.4821 19.7549 21.543 15.661 21.543V21.543H-57.2714" stroke="#565656" stroke-width="0.769395" stroke-dasharray="1.54 1.54"/>
<path d="M84.9067 6.92447V6.92447C94.1624 6.92447 103.26 9.32298 111.313 13.8861L119.391 18.4638C122.953 20.4821 126.977 21.543 131.07 21.543V21.543H206.188" stroke="#565656" stroke-width="0.769395" stroke-dasharray="1.54 1.54"/>
<path d="M40.1968 10.1577L41.8765 10.5645L41.4697 12.2442" stroke="#565656" stroke-width="0.769395"/>
<path d="M109.031 11.3947L109.646 13.01L108.031 13.6245" stroke="#565656" stroke-width="0.769395"/>
</g>
<defs>
<clipPath id="clip0_648_1022">
<rect width="149.775" height="47.7025" fill="white"/>
</clipPath>
</defs>
</svg>
