<?xml version="1.0" encoding="UTF-8"?>
<svg id="Layer_1" xmlns="http://www.w3.org/2000/svg" version="1.1" viewBox="0 0 59 59">
  <!-- Generator: Adobe Illustrator 29.6.1, SVG Export Plug-In . SVG Version: 2.1.1 Build 9)  -->
  <defs>
    <style>
      .st0 {
        fill-rule: evenodd;
      }
    </style>
  </defs>
  <g id="Layer_x5F_1">
    <g id="_597279520">
      <g id="Layer_24">
        <g>
          <g>
            <path id="_597286168" class="st0" d="M34.08,14.82c-.26,0-.51-.11-.7-.3-.16-.16-.25-.36-.43-.71-.31-.62-.9-1.78-2.1-3.31-.5-.63-.7-.85-.84-.99-.11-.11-.39-.37-.8-.67-.31.36-.66.67-1.05.91-1.16.73-2.31.7-3.23.68h-.06s-2.84-.07-5.84.14c-2.12.15-2.74.4-3.2.66-.41.23-1.18.65-1.54,1.44-.15.34-.2.67-.24.94-.02.15-.04.28-.07.4-.15.55-.57.78-.92.81-.21.02-.73-.01-1.08-.66-.09-.16-.17-.38-.25-.63-.14-.46-.26-1.04-.32-1.58-.22-2.02.31-3.67.65-4.48.22-.52.88-1.88,2.25-3.21,2.38-2.3,5.23-2.89,7.12-3.29,1.57-.33,2.67-.37,4.06-.4,1.08-.02,2.35.02,3.64.55.66.27,1.14.6,1.51,1.02.29.33.4.58.54.88.07.15.15.32.27.56.31.59.5.96.82,1.28.14.15.2.18.4.3.21.13.51.3.99.66.6.45,1,.75,1.42,1.26.27.33.84,1.02,1.07,2.04.14.65.08,1.17-.03,2.02-.07.55-.44,1.56-.56,1.85-.48,1.26-.72,1.63-1.18,1.78-.1.03-.2.05-.3.05h0ZM28.98,6.68c.46,0,.85.28,1.1.45l.03.02c.6.41,1.02.81,1.22,1,.22.21.47.49,1,1.17.75.95,1.28,1.77,1.66,2.43.13-.36.22-.69.24-.86.1-.79.13-1.05.06-1.36-.13-.57-.46-.97-.68-1.24-.28-.34-.56-.55-1.1-.96-.4-.3-.63-.44-.82-.55-.25-.14-.48-.28-.8-.62-.5-.52-.78-1.05-1.13-1.71-.15-.29-.25-.51-.32-.67-.11-.24-.13-.29-.23-.4-.12-.14-.32-.32-.82-.52-.96-.4-1.95-.43-2.87-.41-1.32.03-2.3.07-3.71.37-1.77.37-4.2.87-6.19,2.79-1.16,1.12-1.69,2.26-1.82,2.58-.21.51-.53,1.44-.55,2.61.16-.18.34-.35.53-.51.43-.36.86-.6,1.12-.74.8-.44,1.71-.73,3.99-.89,3.09-.21,5.89-.15,6.01-.15h.07c.77.02,1.5.04,2.18-.39.36-.22.66-.54.9-.94.15-.25.4-.43.69-.49.08-.02.16-.02.24-.02h0Z"/>
            <path id="_597285904" class="st0" d="M23.82,30.61c-.64,0-1.36-.06-2.14-.23-.69-.15-2.5-.67-4.28-2.12-.85-.7-2.41-2.24-3.3-4.71-.24-.67-.4-1.4-.49-1.89-.62-.28-1.19-.7-1.67-1.24-.62-.69-1.05-1.52-1.24-2.41-.4-1.8.21-3.58,1.68-4.86.4-.34.99-.3,1.34.09.34.4.3.99-.09,1.34-1.27,1.11-1.22,2.37-1.08,3.02.26,1.16,1.13,2.15,2.18,2.45.36.11.63.41.68.78.07.53.24,1.39.49,2.07.76,2.12,2.16,3.42,2.72,3.88,1.46,1.2,2.93,1.61,3.49,1.74,1.6.35,2.92.12,3.41,0,1.35-.32,2.25-.94,2.64-1.21.28-.19,1.01-.74,1.76-1.62,1.08-1.27,1.87-3,2.3-5.01.08-.38.39-.67.77-.74.42-.07.87-.43,1.25-.99.41-.61.67-1.37.73-2.09.06-.77-.1-1.77-1.16-2.11-.5-.16-.77-.69-.61-1.19.16-.5.69-.77,1.19-.61.9.29,1.6.86,2.02,1.66.36.67.51,1.5.45,2.39-.08,1.04-.46,2.14-1.04,3.02-.52.77-1.17,1.33-1.87,1.62-.52,2.1-1.38,3.87-2.57,5.28-.86,1.02-1.7,1.66-2.13,1.95-.43.3-1.59,1.09-3.28,1.49-.46.11-1.2.23-2.12.23h0Z"/>
            <path id="_597285160" class="st0" d="M18.14,34.24c-.14,0-.28-.03-.42-.1-.47-.23-.66-.8-.43-1.27.29-.59.79-1.77.82-3.06.01-.51-.05-.74-.16-1.13-.03-.1-.06-.22-.1-.35-.13-.51.18-1.02.68-1.15.51-.13,1.02.18,1.15.68.03.11.06.21.08.31.13.44.26.9.23,1.69-.04,1.66-.66,3.13-1.02,3.85-.17.34-.5.53-.85.53Z"/>
            <path id="_597284320" class="st0" d="M29.64,34.86c-.32,0-.64-.16-.81-.46-.63-1.04-1.38-2.67-1.43-4.54-.02-.8.11-1.25.23-1.69.03-.1.06-.2.08-.31.13-.51.65-.81,1.15-.68s.81.65.68,1.15c-.03.13-.07.25-.1.35-.11.39-.18.62-.16,1.13.04,1.46.65,2.77,1.16,3.62.27.45.13,1.03-.32,1.3-.15.09-.32.13-.49.13h0Z"/>
            <path id="_597284968" class="st0" d="M47.55,58H1.05c-.52,0-.95-.42-.95-.95,0-3.31.14-11.57,1.79-16.89.44-1.41.97-2.56,1.67-3.62.59-.89,2.28-3.13,5.31-4.66,2.78-1.41,5.43-1.62,7.17-1.55.23,0,.44.1.61.26l7.45,6.99,7.86-7.01c.16-.15.37-.23.59-.24,1.74-.07,4.39.14,7.17,1.55,3.03,1.54,4.73,3.78,5.31,4.66.7,1.06,1.23,2.21,1.67,3.62.76,2.44,1.28,5.77,1.57,9.91.15,2.23.23,4.64.22,6.97,0,.52-.42.95-.95.95h0ZM24.24,56.1h22.36c-.01-1.99-.09-4-.22-5.89-.27-3.99-.77-7.18-1.49-9.48-.39-1.25-.83-2.22-1.44-3.14-.51-.76-1.96-2.69-4.59-4.02-2.24-1.14-4.39-1.38-5.9-1.36l-8.25,7.36c-.37.33-.92.32-1.28-.02l-7.82-7.34c-1.51-.02-3.65.22-5.89,1.36-2.63,1.34-4.09,3.26-4.59,4.02-.61.92-1.05,1.89-1.44,3.14-.71,2.3-1.21,5.49-1.49,9.48-.13,1.89-.2,3.91-.22,5.89h22.24Z"/>
            <path id="_597284560" class="st0" d="M10.05,58c-.52,0-.95-.42-.95-.95v-10.94c0-.52.42-.95.95-.95s.95.42.95.95v10.94c0,.52-.42.95-.95.95Z"/>
            <path id="_597283672" class="st0" d="M39.31,58c-.52,0-.95-.42-.95-.95v-10.94c0-.52.42-.95.95-.95s.95.42.95.95v10.94c0,.52-.42.95-.95.95Z"/>
          </g>
          <path id="_597283840" class="st0" d="M43.13,30.63c-.52,0-.95-.42-.95-.95V2.78c0-.52.42-.95.95-.95s.95.42.95.95v26.9c0,.52-.42.95-.95.95Z"/>
          <path id="_597283336" class="st0" d="M57.95,17.5h-14.83c-.52,0-.95-.42-.95-.95V5.12c0-.36.21-.69.53-.85s.71-.12,1,.1l14.83,11.43c.32.25.45.67.32,1.06-.13.38-.49.64-.9.64h0ZM44.07,15.6h11.1l-11.1-8.56v8.56Z"/>
          <path id="_597283480" class="st0" d="M28.99,54.57h-9.87c-.52,0-.95-.42-.95-.95v-11.61c0-.52.42-.95.95-.95h9.87c.52,0,.95.42.95.95v11.61c0,.53-.42.95-.95.95ZM20.07,52.67h7.97v-9.71h-7.97v9.71Z"/>
          <g>
            <path id="_597282064" class="st0" d="M25.78,45.96h-3.45c-.52,0-.95-.42-.95-.95s.42-.95.95-.95h3.45c.52,0,.95.42.95.95s-.42.95-.95.95h0Z"/>
            <path id="_597282160" class="st0" d="M25.78,48.76h-3.45c-.52,0-.95-.42-.95-.95s.42-.95.95-.95h3.45c.52,0,.95.42.95.95s-.42.95-.95.95h0Z"/>
            <path id="_597281704" class="st0" d="M25.78,51.57h-3.45c-.52,0-.95-.42-.95-.95s.42-.95.95-.95h3.45c.52,0,.95.42.95.95s-.42.95-.95.95h0Z"/>
          </g>
          <path id="_597281152" class="st0" d="M19.12,42.96c-.32,0-.64-.16-.82-.46l-6.29-10.49c-.27-.45-.12-1.03.33-1.3.45-.27,1.03-.12,1.3.33l6.29,10.49c.27.45.12,1.03-.33,1.3-.15.09-.32.14-.49.14Z"/>
          <path id="_597280576" class="st0" d="M28.99,42.96c-.17,0-.33-.04-.49-.13-.45-.27-.59-.85-.33-1.3l6.29-10.49c.27-.45.85-.59,1.3-.33.45.27.59.85.33,1.3l-6.29,10.49c-.18.3-.49.46-.81.46Z"/>
        </g>
      </g>
    </g>
  </g>
</svg>