<?xml version="1.0" encoding="UTF-8"?>
<svg id="Layer_1" xmlns="http://www.w3.org/2000/svg" version="1.1" viewBox="0 0 59 59">
  <!-- Generator: Adobe Illustrator 29.6.1, SVG Export Plug-In . SVG Version: 2.1.1 Build 9)  -->
  <path d="M46.63,3.81h-3.43v-1.71c0-.94-.77-1.71-1.71-1.71s-1.71.77-1.71,1.71v1.71h-20.55v-1.71c0-.94-.77-1.71-1.71-1.71s-1.71.77-1.71,1.71v1.71h-3.43C6.7,3.81,2.1,8.41,2.1,14.09v34.25c0,5.67,4.6,10.28,10.28,10.28h34.25c5.67,0,10.28-4.6,10.28-10.28V14.09c0-5.67-4.6-10.28-10.28-10.28ZM53.48,48.34c0,3.78-3.07,6.84-6.85,6.85H12.37c-3.78,0-6.84-3.07-6.85-6.85v-27.4h47.95v27.4ZM53.48,17.51H5.52v-3.43c0-3.78,3.07-6.84,6.85-6.85h3.43v1.71c0,.94.77,1.71,1.71,1.71s1.71-.77,1.71-1.71v-1.71h20.55v1.71c0,.94.77,1.71,1.71,1.71s1.71-.77,1.71-1.71v-1.71h3.43c3.78,0,6.84,3.07,6.85,6.85v3.43ZM19.73,40.99c-.66-.68-.64-1.77.04-2.42.66-.64,1.72-.64,2.38,0l5.5,5.5,12.5-15.63c.59-.74,1.67-.86,2.41-.27s.86,1.67.27,2.41l-13.7,17.13c-.31.38-.76.61-1.24.64h-.09c-.45,0-.89-.18-1.21-.5l-6.85-6.85Z"/>
</svg>