<?xml version="1.0" encoding="UTF-8"?>
<svg id="Layer_1" xmlns="http://www.w3.org/2000/svg" version="1.1" viewBox="0 0 59 59">
  <!-- Generator: Adobe Illustrator 29.6.1, SVG Export Plug-In . SVG Version: 2.1.1 Build 9)  -->
  <path d="M43.14,45.47c-.63,0-1.14.51-1.14,1.14s.51,1.14,1.14,1.14,1.14-.51,1.14-1.14-.51-1.14-1.14-1.14Z"/>
  <path d="M45.95,41.78l-5.42-1.81-1.95-3.89c1.75-1.78,2.97-4.15,3.38-6.61l.24-1.45h2.08c1.89,0,3.42-1.54,3.42-3.42v-7.19C47.71,7.98,40.03.3,30.6.3S13.49,7.95,13.49,17.41v7.19c0,1.49.95,2.75,2.28,3.23v1.34c0,1.89,1.54,3.42,3.42,3.42h1c.49,1.07,1.13,2.07,1.91,2.96.16.19.33.37.5.54l-1.95,3.89-5.42,1.81c-6.3,2.1-10.88,8.74-10.88,15.78,0,.63.51,1.14,1.14,1.14h50.19c.63,0,1.14-.51,1.14-1.14,0-7.04-4.58-13.68-10.88-15.78ZM45.42,24.6c0,.63-.51,1.14-1.14,1.14h-1.74c.29-2.25.48-4.64.56-6.99,0-.07,0-.13,0-.2h2.31v6.05ZM16.91,25.74c-.63,0-1.14-.51-1.14-1.14v-6.05h2.32c0,.12,0,.24.01.36,0,0,0,0,0,.01h0c.08,2.29.27,4.62.55,6.81h-1.74ZM19.19,30.3c-.63,0-1.14-.51-1.14-1.14v-1.14h.94l.24,1.46c.05.28.1.55.17.83h-.21ZM18.05,16.27h-2.24c.58-7.64,6.96-13.69,14.78-13.69s14.2,6.04,14.78,13.69h-2.24c-.08-6.3-5.21-11.41-11.52-11.41h-2.04c-6.31,0-11.44,5.11-11.52,11.41ZM29.58,7.14h2.04c5.11,0,9.25,4.18,9.24,9.29,0,.36,0,.67,0,.96,0,0,0,0,0,.01l-1.43-.2c-3.88-.55-7.54-2.38-10.3-5.15-.21-.21-.5-.33-.81-.33-3.06,0-6,1.4-7.93,3.75.48-4.64,4.4-8.32,9.19-8.32ZM21.76,30.3c-.57-1.9-1.22-7.49-1.37-11.07l1.54-2.05c1.41-1.88,3.6-3.05,5.94-3.18,3.07,2.92,7.04,4.85,11.24,5.45l1.68.24c-.11,2.38-.34,4.77-.67,6.97,0,0,0,0,0,0-.1.71-.19,1.16-.4,2.43-.6,3.62-3.31,6.9-6.88,7.79-1.47.37-3.02.37-4.48,0-2.23-.56-4.27-2.1-5.59-4.31h2.33c.47,1.33,1.74,2.28,3.23,2.28h2.28c1.89,0,3.42-1.53,3.42-3.42s-1.54-3.42-3.42-3.42h-2.28c-1.52,0-2.77.98-3.23,2.28h-3.33ZM28.22,39.2c.78.16,1.58.25,2.38.25.62,0,1.25-.05,1.87-.15l-2.02,2.13-2.23-2.23ZM28.88,43.08l-3.62,3.83c-1-1.91-1.85-3.89-2.55-5.92l1.36-2.72,4.81,4.81ZM36.93,37.88l1.55,3.1c-.7,2.03-1.56,4.02-2.55,5.92l-3.87-3.87,4.87-5.15ZM27.17,31.44c0-.63.51-1.14,1.14-1.14h2.28c.63,0,1.14.51,1.14,1.14s-.51,1.14-1.14,1.14h-2.28c-.63,0-1.14-.51-1.14-1.14ZM6.69,56.42c.45-5.65,4.21-10.79,9.27-12.47l4.8-1.6c.88,2.43,1.97,4.8,3.25,7.04,0,0,0,0,0,.01,0,0,0,0,0,0,.93,1.64,1.98,3.25,3.12,4.77l1.4,2.25H6.69ZM30.6,55.4l-1.55-2.48s-.04-.05-.06-.08c-.92-1.23-1.79-2.52-2.57-3.84l4.07-4.3,4.29,4.29c-.79,1.33-1.65,2.62-2.58,3.85-.06.07.02-.04-1.6,2.56ZM32.65,56.42l1.4-2.25c1.14-1.53,2.2-3.15,3.14-4.81,0-.01.01-.02.02-.03,0,0,0,0,0,0,1.26-2.22,2.34-4.57,3.21-6.98l4.8,1.6c5.06,1.69,8.82,6.82,9.27,12.47h-21.85Z"/>
  <path d="M51.08,51.8c-.76-1.53-1.88-2.88-3.23-3.92-.5-.38-1.22-.29-1.6.21-.38.5-.29,1.22.21,1.6,1.08.83,1.97,1.91,2.58,3.13.28.56.97.79,1.53.51.56-.28.79-.97.51-1.53Z"/>
</svg>