<?xml version="1.0" encoding="UTF-8"?>
<svg id="Layer_1" xmlns="http://www.w3.org/2000/svg" version="1.1" viewBox="0 0 59 59">
  <!-- Generator: Adobe Illustrator 29.6.1, SVG Export Plug-In . SVG Version: 2.1.1 Build 9)  -->
  <path d="M53.83,43.28l2.32-2.32c1.35-1.35,2.91-4.93,1.32-6.52-1.59-1.59-5.17-.03-6.52,1.32l-2.32,2.32-12.92-2.39c-.28-.05-.57.04-.78.24l-1.16,1.16c-.36.36-.33.98.07,1.3l7.99,6.49-2.82,2.82-3.22-.29c-.26-.02-.51.07-.7.25l-1.32,1.32c-.38.38-.32,1.02.11,1.33l4.5,3.22,3.22,4.5c.31.43.95.49,1.33.11l1.32-1.32c.18-.18.28-.44.25-.7l-.29-3.22,2.82-2.82,6.49,7.99c.32.4.94.43,1.3.07l1.16-1.16c.2-.2.29-.49.24-.78l-2.39-12.92ZM52.18,37.01c.81-.81,2.52-1.48,3.47-1.48.26,0,.46.05.57.16.52.52-.29,3.02-1.32,4.04l-12.55,12.55c-.53.53-1.29.68-1.95.47l2.53-2.53c.34-.34.34-.9,0-1.24-.34-.34-.9-.34-1.24,0l-2.53,2.53c-.06-.19-.09-.39-.09-.59,0-.51.2-1,.56-1.36l12.55-12.55ZM35.7,37.64l.14-.14,11.28,2.09-4.04,4.04-7.38-5.99ZM36.05,49.18l1.63.15c-.19.4-.31.84-.34,1.29l-1.59-1.14.3-.3ZM42.43,56.17l-1.14-1.59c.44-.04.88-.15,1.29-.34l.15,1.64-.3.3ZM54.27,56.21l-5.99-7.38,4.04-4.04,2.09,11.28-.14.14Z"/>
  <path d="M34.22,54.21c-.29.06-.59.12-.89.17-.48.08-.79.54-.71,1.01.07.42.44.72.86.72.05,0,.1,0,.15-.01.31-.06.63-.12.95-.18.47-.1.78-.56.68-1.04-.1-.47-.56-.78-1.04-.68Z"/>
  <path d="M54.59,24c.1.59.19,1.2.25,1.8.05.47.49.83.96.78.47-.05.83-.49.78-.96-.07-.64-.16-1.29-.27-1.92-.08-.48-.54-.79-1.01-.71-.48.08-.79.54-.71,1.01Z"/>
  <path d="M27.17,2.41s.03,0,.05,0c.6-.04,1.21-.05,1.82-.04h0c.48,0,.87-.39.87-.87,0-.48-.38-.88-.87-.88-.64,0-1.3,0-1.94.05-.47.03-.84.44-.82.91.02.46.41.84.87.84Z"/>
  <path d="M16.39,5.36c.14,0,.27-.03.4-.1.54-.28,1.09-.54,1.64-.77.44-.19.65-.71.46-1.15-.19-.44-.71-.65-1.15-.46-.59.25-1.18.53-1.75.83-.34.18-.53.57-.46.95.08.4.45.7.86.7Z"/>
  <path d="M7.17,12.22c.37.3.93.24,1.23-.13.38-.47.78-.93,1.19-1.37.33-.35.31-.91-.04-1.24-.35-.33-.91-.31-1.24.04-.44.47-.87.96-1.27,1.46-.3.38-.25.93.13,1.23Z"/>
  <path d="M11.69,8.44c.19,0,.39-.06.55-.2.47-.38.95-.75,1.45-1.1.39-.28.49-.83.21-1.22-.28-.39-.83-.49-1.22-.21-.52.37-1.04.76-1.54,1.17-.27.22-.39.6-.29.93.11.37.46.62.84.62Z"/>
  <path d="M32.65,2.65c.6.09,1.2.2,1.79.33.06.01.13.02.19.02.4,0,.76-.28.85-.69.1-.47-.19-.94-.67-1.04-.63-.14-1.27-.26-1.91-.35-.48-.07-.92.26-.99.74-.07.48.26.92.74.99Z"/>
  <path d="M21.62,3.32c.08,0,.15-.01.23-.03.58-.16,1.17-.3,1.77-.42.47-.09.78-.56.69-1.03-.09-.47-.56-.78-1.03-.69-.63.13-1.27.28-1.89.45-.41.11-.69.52-.64.95.05.43.43.77.87.77Z"/>
  <path d="M53.09,18.77c.23.56.43,1.13.62,1.71.15.47.69.72,1.15.55.43-.16.66-.65.52-1.09-.2-.61-.42-1.22-.66-1.82-.18-.45-.69-.67-1.14-.48-.45.18-.67.69-.48,1.14Z"/>
  <path d="M51.5,15.51c.26.45.86.57,1.28.27.35-.26.46-.76.24-1.14-.32-.56-.66-1.11-1.02-1.64-.27-.4-.81-.51-1.21-.24-.4.27-.51.81-.24,1.22.34.5.66,1.02.96,1.54Z"/>
  <path d="M48.32,11.11c.34.38.96.38,1.31,0,.29-.33.29-.84,0-1.17-.43-.48-.88-.95-1.34-1.4-.35-.34-.9-.33-1.24.02-.34.35-.33.9.02,1.24.43.42.85.86,1.26,1.31Z"/>
  <path d="M37.92,4c.56.21,1.13.44,1.68.69.46.21,1.02-.03,1.19-.51.15-.42-.06-.9-.47-1.08-.59-.27-1.19-.52-1.79-.74-.45-.17-.96.06-1.13.51-.17.45.06.96.51,1.13Z"/>
  <path d="M42.79,6.42c.51.32,1.01.67,1.5,1.03.42.31,1.03.17,1.28-.28.21-.38.1-.87-.25-1.13-.52-.38-1.06-.75-1.6-1.09-.41-.26-.95-.14-1.21.27-.26.41-.14.95.27,1.21Z"/>
  <path d="M4.25,17.03c.43.22.96.04,1.18-.38.27-.54.57-1.07.88-1.59.25-.41.12-.95-.3-1.2-.41-.25-.95-.12-1.2.3-.33.55-.65,1.12-.94,1.69-.22.43-.05.96.38,1.18Z"/>
  <path d="M8.83,45.56c-.31-.36-.87-.41-1.23-.1-.36.31-.41.87-.1,1.23.42.49.86.97,1.31,1.43.36.36.97.34,1.3-.05.29-.34.27-.86-.05-1.18-.42-.43-.83-.88-1.22-1.34Z"/>
  <path d="M14.24,50.38c-.5-.33-1-.69-1.47-1.06-.38-.3-.93-.23-1.23.16-.3.38-.23.93.16,1.23.51.39,1.04.77,1.57,1.13.43.29,1.03.13,1.26-.33.2-.39.07-.89-.29-1.13Z"/>
  <path d="M19.06,52.91c-.56-.22-1.12-.47-1.66-.73-.44-.21-.96-.03-1.17.41-.21.44-.03.96.41,1.17.58.28,1.18.54,1.77.78.11.04.22.06.32.06.35,0,.68-.21.81-.55.18-.45-.04-.96-.49-1.14Z"/>
  <path d="M24.29,54.39c-.59-.1-1.19-.23-1.78-.37-.47-.12-.94.17-1.06.64-.12.47.17.94.64,1.06.62.15,1.26.29,1.9.4.48.08.94-.25,1.01-.73.07-.47-.25-.92-.72-1Z"/>
  <path d="M29.72,54.76c-.6.02-1.22.02-1.82,0-.49-.02-.89.36-.9.85s.36.89.85.9c.31,0,.62.01.93.01.33,0,.67,0,1-.02.48-.02.86-.42.84-.91-.02-.48-.42-.86-.91-.84Z"/>
  <path d="M1.69,27.92s.03,0,.05,0c.46,0,.85-.36.87-.83.03-.6.09-1.21.16-1.81.06-.48-.28-.92-.76-.98-.48-.06-.92.28-.98.76-.08.64-.14,1.29-.17,1.93-.03.48.34.9.83.92Z"/>
  <path d="M5.75,41.09c-.23-.42-.76-.58-1.19-.35-.42.23-.58.76-.35,1.19.31.56.64,1.12.98,1.67.27.43.87.53,1.28.22.35-.27.44-.79.2-1.16-.32-.51-.64-1.03-.92-1.56Z"/>
  <path d="M2.4,22.34c.46.12.95-.16,1.07-.62.16-.58.34-1.17.53-1.73.16-.46-.08-.96-.54-1.11-.46-.16-.96.08-1.11.54-.21.61-.4,1.23-.57,1.85-.13.47.15.95.62,1.07Z"/>
  <path d="M2.14,33.52c.48-.07.81-.52.73-1-.09-.59-.16-1.2-.21-1.8-.04-.48-.46-.84-.94-.8-.48.04-.84.46-.8.94.05.64.13,1.29.22,1.92.07.47.52.81,1,.73Z"/>
  <path d="M4.24,37.79c-.21-.56-.41-1.14-.58-1.72-.14-.46-.63-.73-1.09-.59s-.73.63-.59,1.09c.18.62.39,1.23.62,1.84.17.47.72.69,1.17.49.42-.18.63-.68.47-1.11Z"/>
  <path d="M55.87,28.62c-.48-.02-.89.36-.9.85-.01.3-.03.6-.05.9-.03.48.34.9.81.93.48.03.9-.34.93-.81.02-.32.04-.64.05-.96.02-.48-.36-.89-.85-.9Z"/>
  <path d="M50.38,34.61c.07.02.14.02.2.02.4,0,.76-.27.85-.67.42-1.76.63-3.57.63-5.39,0-12.84-10.45-23.29-23.29-23.29-2.36,0-4.69.35-6.92,1.05-.46.14-.72.63-.58,1.1.14.46.63.72,1.1.58,2.07-.64,4.22-.97,6.4-.97,4.11,0,7.95,1.16,11.22,3.16-1.68,2.43-3.11,4.36-3.43,4.68-.57.52-5.12,2.23-9,3.53-.06.02-.12.05-.17.08l-4.67,2.8c-.33.2-.49.59-.4.96.01.04.25.99.61,1.96.44,1.16,1.01,2.35,2,2.43.28.22.8,1.2,1.12,2.14l.92,5.53c.07.42.44.73.86.73h7.47c.48,0,.88-.39.88-.88s-.39-.88-.88-.88h-6.73l-.81-4.87s-.02-.09-.03-.13c-.4-1.21-1.25-3.21-2.51-3.39-.27-.3-.7-1.35-1.03-2.46l4.02-2.41c.43-.14,2.31-.78,4.25-1.5,4.62-1.7,5.1-2.19,5.34-2.42.51-.51,2.17-2.8,3.65-4.95.86.63,1.66,1.31,2.42,2.05l-1.81,2.72c-.07.1-.11.22-.13.34l-.81,4.87h-4.86c-.42,0-.78.29-.86.7l-.93,4.67c-.05.26.02.53.19.73l4.67,5.6c.1.13.24.22.4.27,1.01.34,2.82,1.08,3.39,1.66.18.18.64.6,2.57,2.15.16.13.36.19.55.19.26,0,.51-.11.68-.33.3-.38.24-.93-.13-1.23-1.81-1.45-2.3-1.89-2.43-2.02-.91-.91-3.08-1.73-3.84-2l-4.24-5.09.71-3.55h4.89c.43,0,.79-.31.86-.73l.9-5.42,1.48-2.22c3.25,3.77,5.21,8.68,5.21,14.03,0,1.69-.2,3.36-.58,4.99-.11.47.18.94.65,1.05Z"/>
  <path d="M32.96,50.61c-.07-.48-.52-.81-.99-.74-1.05.16-2.12.23-3.18.23-5.25,0-10.07-1.89-13.81-5.02l3.7-.71c.22-.04.42-.17.55-.35l4.67-6.54c.13-.18.18-.39.16-.61l-.93-8.4c-.01-.12-.05-.23-.1-.33l-4.67-8.4c-.06-.11-.14-.2-.24-.28l-3.74-2.8c-.15-.11-.34-.18-.53-.18h-2.91c2.04-3.01,4.86-5.52,8.28-7.22.43-.22.61-.74.39-1.17-.22-.43-.74-.61-1.17-.39-3.82,1.9-7.06,4.82-9.34,8.43-2.35,3.72-3.59,8.02-3.59,12.43,0,12.84,10.45,23.29,23.29,23.29,1.15,0,2.31-.09,3.44-.25.48-.07.81-.52.74-.99ZM7.24,28.57c0-3.7.93-7.23,2.62-10.33h3.69l3.35,2.51,4.49,8.09.88,7.9-4.27,5.98-4.53.87s-.06.01-.09.02c-3.79-3.88-6.14-9.19-6.14-15.04Z"/>
</svg>