<svg width="108" height="18" viewBox="0 0 108 18" fill="none" xmlns="http://www.w3.org/2000/svg"><path d="M29.019 9.112h2.56c1.287 0 2.216.47 2.216 1.927-.03 1.311-1.076 2.358-2.349 2.328-.05 0-.095 0-.139-.008h-1.733l-.483 2.375h-1.404l1.33-6.63v.007zm2.223 3.118c.563.076 1.075-.334 1.148-.91a.958.958 0 0 0 .001-.25c.001-.668-.496-.828-.994-.828h-1.2l-.394 1.988h1.44z" fill="#010101"/><path d="M35.142 9.112h1.273l-.476 2.382h.014a1.83 1.83 0 0 1 1.528-.683c.886.001 1.354.449 1.354 1.29-.03.282-.073.555-.132.828l-.57 2.815H36.86l.564-2.815c.037-.19.066-.387.08-.584 0-.288-.314-.493-.607-.493-.768 0-1.155.668-1.294 1.336l-.52 2.557H33.81l1.34-6.631h-.008z" fill="#010101"/><path d="M40.49 10.933h1.28l-.988 4.802h-1.28l.988-4.802zm1.426-.744h-1.28l.234-1.086h1.28l-.234 1.085z" fill="#010101"/><path d="M43.408 9.112h1.273l-1.36 6.63h-1.273l1.36-6.63z" fill="#010101"/><path d="M45.573 10.933h1.28l-.988 4.802h-1.28l.988-4.802zm1.426-.744h-1.28l.233-1.086h1.28L47 10.19z" fill="#010101"/><path d="M48.04 10.94h1.228l-.124.592.014.015a1.502 1.502 0 0 1 1.39-.743c.907-.069 1.697.637 1.763 1.578.008.106 0 .212 0 .318 0 1.578-.804 3.164-2.515 3.164a1.317 1.317 0 0 1-1.295-.774h-.03l-.482 2.33h-1.273l1.331-6.495-.007.015zm2.084.865c-.951 0-1.397 1.206-1.397 2.033 0 .622.292 1.04.914 1.04.967 0 1.39-1.16 1.39-2.003.06-.524-.306-1.002-.811-1.062h-.096v-.008z" fill="#010101"/><path d="M53.737 10.94h1.229l-.125.592.016.015a1.5 1.5 0 0 1 1.39-.743c.907-.069 1.697.637 1.763 1.578.006.106-.001.212-.001.318-.001 1.578-.806 3.164-2.518 3.164a1.317 1.317 0 0 1-1.295-.774h-.029l-.483 2.33h-1.273l1.332-6.495-.007.015zm2.084.865c-.95 0-1.396 1.206-1.396 2.033 0 .622.293 1.04.915 1.04.964 0 1.388-1.16 1.388-2.003.06-.524-.307-1.002-.812-1.062h-.095v-.008z" fill="#010101"/><path d="M59.493 10.933h1.28l-.987 4.802h-1.28l.987-4.802zm1.427-.744h-1.28l.234-1.086h1.28l-.234 1.085z" fill="#010101"/><path d="M62.025 10.94h1.214l-.147.668h.014a1.966 1.966 0 0 1 1.617-.797c.885.001 1.353.449 1.353 1.29-.029.282-.073.555-.131.828l-.57 2.815h-1.274l.564-2.815c.036-.19.065-.387.08-.584 0-.289-.314-.493-.607-.493-.77 0-1.157.668-1.296 1.336l-.52 2.557h-1.272l.973-4.803z" fill="#010101"/><path d="M68.17 13.656c0 .053-.008.106-.008.16v.12c0 .555.33.942 1.017.942.408-.023.774-.273.95-.66h1.272c-.314 1.077-1.316 1.767-2.399 1.654-1.024.113-1.946-.66-2.055-1.723a1.583 1.583 0 0 1 0-.372c-.103-1.525 1.002-2.845 2.472-2.952h.08c1.288 0 2.159.706 2.159 2.094-.002.25-.03.5-.075.751h-3.409l-.007-.014zm2.252-.834c0-.493-.117-1.024-.856-1.024-.6 0-1.119.417-1.265 1.024h2.122z" fill="#010101"/><path d="M78.016 9.112h1.44l1.069 6.63h-1.397l-.205-1.479H76.53l-.804 1.48h-1.485l3.776-6.631zm-.93 4.066H78.8l-.316-2.64h-.015l-1.383 2.64z" fill="#010101"/><path d="M82.164 10.933h1.28l-.988 4.802h-1.28l.988-4.802zm1.426-.744h-1.28l.234-1.086h1.28l-.234 1.085z" fill="#010101"/><path d="M84.687 10.94h1.207l-.19.865.014.015a1.676 1.676 0 0 1 1.595-1.009c.132.001.263.009.395.032l-.263 1.282a2.608 2.608 0 0 0-.534-.084c-.972 0-1.323.76-1.492 1.578l-.431 2.125h-1.273l.966-4.795.007-.008z" fill="#010101"/><path d="M88.783 9.112h1.273l-1.36 6.63h-1.273l1.36-6.63z" fill="#010101"/><path d="M90.95 10.933h1.28l-.988 4.802h-1.28l.987-4.802zm1.426-.744h-1.28l.234-1.086h1.28l-.234 1.085z" fill="#010101"/><path d="M93.472 10.94h1.214l-.146.668h.022a1.966 1.966 0 0 1 1.617-.797c.884.001 1.352.449 1.352 1.29-.03.282-.073.555-.132.828l-.57 2.815h-1.273l.563-2.815c.037-.19.066-.387.08-.584 0-.289-.314-.493-.606-.493-.769 0-1.156.668-1.295 1.336l-.52 2.557h-1.273l.972-4.803h-.008z" fill="#010101"/><path d="M99.625 13.656c0 .053-.007.106-.007.16v.12c0 .555.329.942 1.016.942.41-.023.776-.273.95-.66h1.274c-.314 1.077-1.316 1.767-2.4 1.654-1.023.113-1.945-.66-2.055-1.723a1.638 1.638 0 0 1 0-.38c-.102-1.525 1.003-2.845 2.473-2.951l.08-.001c1.288-.001 2.158.704 2.158 2.093 0 .25-.03.5-.073.75h-3.408l-.007-.007zm2.253-.834c0-.493-.117-1.024-.856-1.024-.6 0-1.126.417-1.265 1.024h2.12z" fill="#010101"/><path d="M106.815 12.344c-.008-.41-.227-.653-.717-.653-.454.001-.776.13-.776.472 0 .212.154.34.586.485l.636.213c.68.22 1.214.576 1.214 1.373 0 1.19-1.126 1.63-2.202 1.63-.907 0-1.967-.37-1.967-1.494v-.198h1.176v.16c0 .432.476.652.915.652.39 0 .805-.137.805-.577 0-.333-.175-.424-.453-.53l-.973-.327c-.637-.22-1.003-.463-1.003-1.23 0-1.13 1.156-1.524 2.048-1.524 1.002 0 1.924.296 1.895 1.533h-1.185v.014z" fill="#010101"/><path d="M0 15.56h15.084L17.776 0 0 15.56z" fill="#2E378F"/><path d="m15.699 6.798.123-5.09-.41.363-.117 4.773-.556 2.117-.95-1.806-.505-3.217-.359.312.446 2.904v2.269h.015-.022.007l-1.316-1.601-1.134-1.836-.307.265 1.082 1.754.512 2.04h.014l-.03.009h.015l-1.756-1.245L9.342 7.36l-.3.257 1.097 1.442.987 1.835-2.02-.835L7.63 8.854l-.3.258 1.522 1.244 1.397 1.525.014-.014s-.015.015-.023.03v-.015l-2.178-.394-2.268-1.031-.315.28 2.391 1.093 1.67 1.221.014-.016-.022.046v-.023l-2.143-.152-3.315-.933-.344.303 3.527.994 1.821 1.008-2.136.258-5.435-.318-.41.356 5.794.342 1.97.569 7.417-6.373-.608-2.314.014-.015.015.015z" fill="#F6B624"/><path d="M8.522 15.56h15.092L26.305 0 8.522 15.56z" fill="#EE272B"/></svg>