<svg width="84" height="29" viewBox="0 0 84 29" fill="none" xmlns="http://www.w3.org/2000/svg"><path d="M14.861 2.362a3.552 3.552 0 0 0-.738 2.092v6.555a3.018 3.018 0 0 1-.543 1.368c-.143.138-1.228 1.085-1.283 1.2l.566.03c.197-.138 2.195-1.9 2.368-2.146.591-.623.93-1.438.945-2.284V2.862c0-.654.26-1.277.716-1.754.26-.254 1-.923 1.142-1.062h-.598c-.118.192-2.313 2.116-2.565 2.316h-.009z" fill="#D71A21"/><path d="m9.952 26.264 2.455 2.062h1.628c1.558 0 3.053-.6 4.162-1.677a4.863 4.863 0 0 0 1.369-3.517v-3.431a2.87 2.87 0 0 0-.944-2.039 180.51 180.51 0 0 0-.826-.777v2.646s.794.808.944.947c.74.753.74 2.114-1.597 4.291a4.628 4.628 0 0 1-3.108 1.479H9.952v.014z" fill="#D71A21"/><path d="M16.742 12.263a2.588 2.588 0 0 0-.543 1.592v1.285h1.313c.535-.03 1.022-.3 1.337-.723v-1.285c.205.285.456.53.74.723.141-.138 1.369-1.615 2.368-1.646 1.715-.032 1.314 2.091.63 2.791-.26.255-1.228 1.117-1.511 1.424-.826.754-2.195.416-2.195-1.561 0 0-1.51 1.37-1.708 1.561-.26.193-.967.978-.967.978v3.4a3.27 3.27 0 0 1-1 2.677c-.14.191-2.084 1.868-2.336 2.06l-.597.031c0 .001 1.11-.976 1.314-1.199.393-.46.59-1.045.543-1.645 0-.254-.055-5.354-.055-5.354H5.562c-2.997 0-3.595-3.207-3.619-4.13V10A1.97 1.97 0 0 0 1 8.325h.825c.087.054.63.254.63 2.2 0 0-.055 2.316-.055 2.454-.016 1.116.857 2.054 1.998 2.146l9.724-.03a3.46 3.46 0 0 1 .74-1.731c.26-.277 2.367-2.147 2.596-2.316h.63c-.087.085-1.11.946-1.338 1.2l-.008.016zm3.194 1.923c.26.338.543.638.826.946 1.054.808 1.51-.085.826-.977-.26-.392-1.337-.308-1.652.03z" fill="#D71A21"/><path d="M9.559 20.294c-.001.446-1.512 1.677-1.598 1.73-.087-.5-.512-1.03-1.597-2.115l1.628-1.593c1.11 1.085 1.566 1.339 1.566 1.977z" fill="#D71A21"/><path d="M12.383 1.946c.339.331 1.03 1.2.63 1.616-.37.361-.944.946-.944.946a2.958 2.958 0 0 0-.6-.723v1.73c-.03.724-.26.924-.26.924a4.52 4.52 0 0 1 1.315 2.93v1.677a1.08 1.08 0 0 1-.338.862c-.118.137-1.314 1.337-1.51 1.476a1.33 1.33 0 0 1-1 .361H5.082c-.74 0-1.487-.53-1.487-1.115 0-.139.032-1.646.032-1.646.228.338.614.546 1.03.561.402-.023.772-.208 1.031-.5.142-.138 3.422-3.485 3.422-3.485A22.335 22.335 0 0 0 6.57 5.5a.88.88 0 0 0-1.18.331.626.626 0 0 0-.08.201 10.85 10.85 0 0 0 0 3.348L4.053 8.147A1.602 1.602 0 0 1 4.17 5.97a3.307 3.307 0 0 1 2.163-1.116h1.833c.952.13 1.841.554 2.542 1.2.086-.13.157-.269.196-.415 0-.616-.031-2.263-.031-2.263-.858-.923-.968-1.87-.543-2.262C11.125.254 11.416 0 11.416 0c.078.746.417 1.439.967 1.954v-.008zm-5.68 8.924c-.267.316-.59.592-.944.808h5.136c1.4 0 1.11-.839.858-1.254A16.384 16.384 0 0 0 9.645 7.94l-2.934 2.93h-.007z" fill="#D71A21"/><path d="M.826 15.417H0c.606.377.96 1.03.944 1.73v3.993c.008 2.654 2.132 4.847 4.846 4.993h2.195c.976.07 1.936-.3 2.597-1.008.29-.261.566-.546.826-.838a2.893 2.893 0 0 0 .967-2.285v-1.285c0-.761-.377-1.47-.999-1.923a45.88 45.88 0 0 0-.77-.723v2.678c.25.277.534.538.825.777a1.36 1.36 0 0 1 .198 1.946 1.44 1.44 0 0 1-1.023.509H5.727c-2.344-.032-4.232-1.893-4.248-4.186v-2.208C1.51 15.41.825 15.41.825 15.41v.007z" fill="#D71A21"/><path d="M6.215 20.325c0 .446-1.51 1.677-1.597 1.73-.087-.5-.511-1.03-1.597-2.115l1.63-1.592c1.085 1.061 1.565 1.308 1.565 1.977z" fill="#D71A21"/><path d="M33.2 20.548h-2.596c-.826 0-.74-.67-.826-1.23v-3.624s.566-.031 1.227-.031a4.924 4.924 0 0 1 2.51.392 2.622 2.622 0 0 0-2.51-1.477H29.81v-1.2s0-1.03-.26-1.285h1.715c1.487 0 2.596-.03 3.792.754 0 0-.26-1.9-3.084-1.9H26.41c.654.654 1 1.539.945 2.454l.031 6.61c0 1.669.685 1.7.685 1.7h5.531c.828.092 1.583-.485 1.677-1.293v-.046l.032-.615a2.604 2.604 0 0 1-2.118.785l.008.008z" fill="#D71A21"/><path d="M47.865 19.994v-4.6c0-1.785-1.51-2.285-2.596-2.285-1 .03-1.858.699-2.11 1.645-.354-1.008-1.337-1.67-2.423-1.646-1.038.014-1.943.699-2.226 1.668 0 0-.055-1.615-1.486-1.615H35.6s.826.307.826 1.7v5.13c0 1.67.716 1.732.716 1.732h2.313a2.2 2.2 0 0 1-.882-1.73v-4.61a1.39 1.39 0 0 1 1.37-.922c.66.046 1.172.584 1.172 1.23v4.24c0 1.7.715 1.73.715 1.73h2.313a2.2 2.2 0 0 1-.88-1.73v-4.547c.22-.67.951-1.03 1.636-.815h.014a1.3 1.3 0 0 1 .945 1.17v4.208c.03 1.73.715 1.7.715 1.7h2.344a1.822 1.822 0 0 1-1.024-1.67l-.031.016z" fill="#D71A21"/><path d="M51.917 19.994c0 .685.322 1.323.88 1.73h-2.336c.001 0-.715.032-.715-1.7V14.84c0-1.37-.794-1.7-.794-1.7h1.425c.51 0 1.51 0 1.51 1.9l.032 4.962v-.008z" fill="#D71A21"/><path d="M59.068 13.801a1.203 1.203 0 0 0-1.172-.614c-1.48 0-1.794 1.67-1.794 1.67-.118-1.34-.456-1.732-1.51-1.732h-1.424s.826.308.826 1.7v5.132c0 1.67.716 1.73.716 1.73h2.336a2.2 2.2 0 0 1-.88-1.73V15.77c.046-.36.25-.676.573-.86a1.805 1.805 0 0 1 2.39.338c.032.03-.062-1.447-.062-1.447z" fill="#D71A21"/><path d="M69.854 14.109c.48-.001.952.114 1.37.337v-1.284h-1.912v-1.954a7.563 7.563 0 0 1-1.566 1.699 13.96 13.96 0 0 1-2.053 1.199l1.479.03v5.939c0 1.668.716 1.668.716 1.668H70.2a2.432 2.432 0 0 1-.943-1.67v-5.97h.605-.008z" fill="#D71A21"/><path d="M76.927 16.701c-1.314 1.31-2.337 1.117-3.14 2.125a2.4 2.4 0 0 0 1.173 1.785c1 .476 2.21.076 2.699-.9-.002 0-.002-.016.006-.024v1.4s-.574.7-2.51.7c-2.312 0-3.823-1.73-3.823-4.13s1.259-4.493 3.682-4.493c2.368-.085 3.595 1.815 1.912 3.538zm-1.424-.552c.401-.7.716-2.455-.63-2.347-1.51.117-1.227 4.07-1.227 4.07.488-.553 1.283-.7 1.857-1.73v.008z" fill="#D71A21"/><path d="M50.83 12.432c.59-.023 1.055-.508 1.032-1.085a1.06 1.06 0 0 0-1.055-1.008c-.59 0-1.077.453-1.077 1.038 0 .577.464 1.054 1.062 1.054h.047-.01z" fill="#D71A21"/><path d="M61.468 20.74a1.042 1.042 0 0 1-.944-1.115c0-2.147 1.77-2.454 2.312-3.016v3.622c-.354.37-.857.554-1.368.508zm1.337-4.908c-.543.923-4.736 1.116-4.107 4.293.315 1.177 1.55 1.885 2.754 1.577a2.228 2.228 0 0 0 1.353-.993c.142.946.653 1.03.653 1.03h2.337a2.253 2.253 0 0 1-.944-1.7v-4.854c0-1.146-1.313-2.039-2.706-2.039a3.944 3.944 0 0 0-2.195.616v1.477a1.9 1.9 0 0 1 1.683-1.2c1.172 0 1.259.554 1.259.861a.84.84 0 0 1-.087.925v.007z" fill="#D71A21"/><path d="M82.064 19.402a1.52 1.52 0 0 1-1.62 1.4c-.032 0-.063 0-.087-.008a1.985 1.985 0 0 1-1.715-1.2v1.508a4.073 4.073 0 0 0 2.195.615c1.566 0 3.194-1.17 3.163-2.815a2.474 2.474 0 0 0-.543-1.477 7.637 7.637 0 0 0-2.313-1.647 1.348 1.348 0 0 1-.653-.923c-.03-.277.143-.861 1.315-.861.74.061 1.377.523 1.652 1.2v-1.447a4.115 4.115 0 0 0-2.195-.7c-1.4 0-2.651.924-2.596 2.04a2.608 2.608 0 0 0 1.313 2.284c.385.27.778.508 1.195.724.496.261.834.754.882 1.308h.007z" fill="#D71A21"/></svg>