<svg width="764" height="80" viewBox="0 0 764 80" fill="none" xmlns="http://www.w3.org/2000/svg">
<path d="M42.7875 17.7672C54.5991 11.3516 67.8272 7.99095 81.2687 7.99095H734.958C736.047 7.99095 737.082 8.46849 737.788 9.29746C752.889 27.017 752.889 53.0791 737.788 70.7986C737.082 71.6276 736.048 72.1051 734.958 72.1051H80.2117C67.4441 72.1051 54.8591 69.0728 43.4925 63.2579L25.9288 54.2726C14.9329 48.6472 14.7396 33.0018 25.5932 27.1065L42.7875 17.7672Z" fill="#EFF5FB"/>
<path d="M30.6715 29.8742V50.2218C20.4983 43.7719 19.0141 36.9237 30.6715 29.8742Z" fill="white"/>
<path d="M58.2943 26.179L49.8252 24.2046L66.7634 17.7328V23.7658L58.2943 26.179Z" fill="white"/>
<path d="M58.2943 53.4371L49.8252 55.4115L66.7634 61.8833V55.8503L58.2943 53.4371Z" fill="white"/>
<path d="M68.6758 22.7238V17.1865L81.0092 14.0856L81.516 18.4047C80.5699 19.3792 72.5616 21.6901 68.6758 22.7238Z" fill="white"/>
<path d="M68.6758 56.5084V62.1687L81.0092 65.3385L81.516 60.9234C80.5699 59.9272 72.5616 57.565 68.6758 56.5084Z" fill="white"/>
<path d="M47.6975 39.0402H34.7993L47.6975 25.4112L57.2014 27.0733L47.6975 39.0402Z" fill="white"/>
<path d="M48.4431 54.2049L56.9287 52.4175L47.4248 40.5759H34.5266L48.4431 54.2049Z" fill="white"/>
<path d="M106.547 7.99096C106.547 8.54554 106.392 9.09469 106.09 9.60706C105.787 10.1194 105.345 10.585 104.787 10.9771C104.229 11.3693 103.566 11.6804 102.837 11.8926C102.108 12.1048 101.326 12.214 100.537 12.214C99.7474 12.214 98.9658 12.1048 98.2366 11.8926C97.5074 11.6803 96.8449 11.3693 96.2868 10.9771C95.7286 10.585 95.2859 10.1194 94.9839 9.60706C94.6818 9.09469 94.5264 8.54554 94.5264 7.99096L100.537 7.99096H106.547Z" fill="#D9E3ED"/>
<path d="M106.547 72.1051C106.547 71.5506 106.392 71.0014 106.09 70.489C105.787 69.9767 105.345 69.5111 104.787 69.119C104.229 68.7268 103.566 68.4157 102.837 68.2035C102.108 67.9913 101.326 67.8821 100.537 67.8821C99.7474 67.8821 98.9658 67.9913 98.2366 68.2035C97.5074 68.4158 96.8449 68.7268 96.2868 69.119C95.7286 69.5111 95.2859 69.9767 94.9839 70.489C94.6818 71.0014 94.5264 71.5506 94.5264 72.1051L100.537 72.1051H106.547Z" fill="#D9E3ED"/>
<rect x="533.827" y="46.5746" width="9.32554" height="6.55249" rx="1.15175" fill="#C6DDF4"/>
<rect x="389.578" y="46.5746" width="9.32554" height="6.55249" rx="1.15175" fill="#C6DDF4"/>
<rect x="548.748" y="46.5746" width="9.32554" height="6.55249" rx="1.15175" fill="#E7ECF0"/>
<rect x="404.5" y="46.5746" width="9.32554" height="6.55249" rx="1.15175" fill="#E7ECF0"/>
<rect x="563.668" y="46.5746" width="9.32554" height="6.55249" rx="1.15175" fill="#C6DDF4"/>
<rect x="419.42" y="46.5746" width="9.32554" height="6.55249" rx="1.15175" fill="#C6DDF4"/>
<rect x="160.325" y="46.5746" width="9.32554" height="6.55249" rx="1.15175" fill="#C6DDF4"/>
<rect x="578.589" y="46.5746" width="9.32554" height="6.55249" rx="1.15175" fill="#C6DDF4"/>
<rect x="434.341" y="46.5746" width="9.32554" height="6.55249" rx="1.15175" fill="#C6DDF4"/>
<rect x="175.246" y="46.5746" width="9.32554" height="6.55249" rx="1.15175" fill="#C6DDF4"/>
<rect x="593.51" y="46.5746" width="9.32554" height="6.55249" rx="1.15175" fill="#C6DDF4"/>
<rect x="449.262" y="46.5746" width="9.32554" height="6.55249" rx="1.15175" fill="#C6DDF4"/>
<rect x="190.167" y="46.5746" width="9.32554" height="6.55249" rx="1.15175" fill="#E7ECF0"/>
<rect x="608.43" y="46.5746" width="9.32554" height="6.55249" rx="1.15175" fill="#E7ECF0"/>
<rect x="464.184" y="46.5746" width="9.32554" height="6.55249" rx="1.15175" fill="#E7ECF0"/>
<rect x="205.087" y="46.5746" width="9.32554" height="6.55249" rx="1.15175" fill="#C6DDF4"/>
<rect x="623.352" y="46.5746" width="9.32554" height="6.55249" rx="1.15175" fill="#C6DDF4"/>
<rect x="479.104" y="46.5746" width="9.32554" height="6.55249" rx="1.15175" fill="#C6DDF4"/>
<rect x="280.026" y="46.5746" width="9.32554" height="6.55249" rx="1.15175" fill="#C6DDF4"/>
<rect x="698.291" y="46.5746" width="9.32554" height="6.55249" rx="1.15175" fill="#C6DDF4"/>
<rect x="220.009" y="46.5746" width="9.32554" height="6.55249" rx="1.15175" fill="#C6DDF4"/>
<rect x="638.272" y="46.5746" width="9.32554" height="6.55249" rx="1.15175" fill="#C6DDF4"/>
<rect x="494.025" y="46.5746" width="9.32554" height="6.55249" rx="1.15175" fill="#C6DDF4"/>
<rect x="294.948" y="46.5746" width="9.32554" height="6.55249" rx="1.15175" fill="#C6DDF4"/>
<rect x="713.212" y="46.5746" width="9.32554" height="6.55249" rx="1.15175" fill="#C6DDF4"/>
<rect x="249.976" y="46.5746" width="9.32554" height="6.55249" rx="1.15175" fill="#E7ECF0"/>
<rect x="668.24" y="46.5746" width="9.32554" height="6.55249" rx="1.15175" fill="#E7ECF0"/>
<rect x="324.915" y="46.5746" width="9.32554" height="6.55249" rx="1.15175" fill="#E7ECF0"/>
<rect x="265.001" y="46.5746" width="9.32554" height="6.55249" rx="1.15175" fill="#C6DDF4"/>
<rect x="683.265" y="46.5746" width="9.32554" height="6.55249" rx="1.15175" fill="#C6DDF4"/>
<rect x="339.94" y="46.5746" width="9.32554" height="6.55249" rx="1.15175" fill="#C6DDF4"/>
<rect x="234.929" y="46.5746" width="9.32554" height="6.55249" rx="1.15175" fill="#C6DDF4"/>
<rect x="653.194" y="46.5746" width="9.32554" height="6.55249" rx="1.15175" fill="#C6DDF4"/>
<rect x="508.946" y="46.5746" width="9.32554" height="6.55249" rx="1.15175" fill="#C6DDF4"/>
<rect x="309.868" y="46.5746" width="9.32554" height="6.55249" rx="1.15175" fill="#C6DDF4"/>
<rect x="364.718" y="46.5746" width="9.32554" height="6.55249" rx="1.15175" fill="#C6DDF4"/>
<rect x="548.748" y="10.6784" width="9.32554" height="6.55249" rx="1.15175" fill="#E7ECF0"/>
<rect x="563.668" y="10.6784" width="9.32554" height="6.55249" rx="1.15175" fill="#C6DDF4"/>
<rect x="160.325" y="10.6784" width="9.32554" height="6.55249" rx="1.15175" fill="#E7ECF0"/>
<rect x="578.589" y="10.6784" width="9.32554" height="6.55249" rx="1.15175" fill="#E7ECF0"/>
<rect x="175.246" y="10.6784" width="9.32554" height="6.55249" rx="1.15175" fill="#C6DDF4"/>
<rect x="593.51" y="10.6784" width="9.32554" height="6.55249" rx="1.15175" fill="#C6DDF4"/>
<rect x="190.167" y="10.6784" width="9.32554" height="6.55249" rx="1.15175" fill="#C6DDF4"/>
<rect x="608.43" y="10.6784" width="9.32554" height="6.55249" rx="1.15175" fill="#C6DDF4"/>
<rect x="205.087" y="10.6784" width="9.32554" height="6.55249" rx="1.15175" fill="#E7ECF0"/>
<rect x="623.352" y="10.6784" width="9.32554" height="6.55249" rx="1.15175" fill="#E7ECF0"/>
<rect x="280.026" y="10.6784" width="9.32554" height="6.55249" rx="1.15175" fill="#E7ECF0"/>
<rect x="698.291" y="10.6784" width="9.32554" height="6.55249" rx="1.15175" fill="#E7ECF0"/>
<rect x="220.009" y="10.6784" width="9.32554" height="6.55249" rx="1.15175" fill="#E7ECF0"/>
<rect x="638.272" y="10.6784" width="9.32554" height="6.55249" rx="1.15175" fill="#E7ECF0"/>
<rect x="294.948" y="10.6784" width="9.32554" height="6.55249" rx="1.15175" fill="#E7ECF0"/>
<rect x="713.212" y="10.6784" width="9.32554" height="6.55249" rx="1.15175" fill="#E7ECF0"/>
<rect x="249.976" y="10.6784" width="9.32554" height="6.55249" rx="1.15175" fill="#C6DDF4"/>
<rect x="668.24" y="10.6784" width="9.32554" height="6.55249" rx="1.15175" fill="#C6DDF4"/>
<rect x="324.915" y="10.6784" width="9.32554" height="6.55249" rx="1.15175" fill="#C6DDF4"/>
<rect x="265.001" y="10.6784" width="9.32554" height="6.55249" rx="1.15175" fill="#E7ECF0"/>
<rect x="683.265" y="10.6784" width="9.32554" height="6.55249" rx="1.15175" fill="#E7ECF0"/>
<rect x="339.94" y="10.6784" width="9.32554" height="6.55249" rx="1.15175" fill="#E7ECF0"/>
<rect x="234.929" y="10.6784" width="9.32554" height="6.55249" rx="1.15175" fill="#E7ECF0"/>
<rect x="653.194" y="10.6784" width="9.32554" height="6.55249" rx="1.15175" fill="#E7ECF0"/>
<rect x="309.868" y="10.6784" width="9.32554" height="6.55249" rx="1.15175" fill="#E7ECF0"/>
<rect x="364.718" y="10.6784" width="9.32554" height="6.55249" rx="1.15175" fill="#E7ECF0"/>
<rect x="115.562" y="50" width="9.32554" height="6.55249" rx="1.15175" fill="#E7ECF0"/>
<rect x="533.827" y="55.0466" width="9.32554" height="6.55249" rx="1.15175" fill="#E7ECF0"/>
<rect x="389.578" y="55.0466" width="9.32554" height="6.55249" rx="1.15175" fill="#E7ECF0"/>
<rect x="130.483" y="50" width="9.32554" height="6.55249" rx="1.15175" fill="#C6DDF4"/>
<rect x="548.748" y="55.0466" width="9.32554" height="6.55249" rx="1.15175" fill="#C6DDF4"/>
<rect x="404.5" y="55.0466" width="9.32554" height="6.55249" rx="1.15175" fill="#C6DDF4"/>
<rect x="145.404" y="50" width="9.32554" height="6.55249" rx="1.15175" fill="#C6DDF4"/>
<rect x="563.668" y="55.0466" width="9.32554" height="6.55249" rx="1.15175" fill="#C6DDF4"/>
<rect x="419.42" y="55.0466" width="9.32554" height="6.55249" rx="1.15175" fill="#C6DDF4"/>
<rect x="160.325" y="55.0466" width="9.32554" height="6.55249" rx="1.15175" fill="#C6DDF4"/>
<rect x="578.589" y="55.0466" width="9.32554" height="6.55249" rx="1.15175" fill="#C6DDF4"/>
<rect x="434.341" y="55.0466" width="9.32554" height="6.55249" rx="1.15175" fill="#C6DDF4"/>
<rect x="175.246" y="55.0466" width="9.32554" height="6.55249" rx="1.15175" fill="#E7ECF0"/>
<rect x="593.51" y="55.0466" width="9.32554" height="6.55249" rx="1.15175" fill="#E7ECF0"/>
<rect x="449.262" y="55.0466" width="9.32554" height="6.55249" rx="1.15175" fill="#E7ECF0"/>
<rect x="190.167" y="55.0466" width="9.32554" height="6.55249" rx="1.15175" fill="#E7ECF0"/>
<rect x="608.43" y="55.0466" width="9.32554" height="6.55249" rx="1.15175" fill="#E7ECF0"/>
<rect x="464.184" y="55.0466" width="9.32554" height="6.55249" rx="1.15175" fill="#E7ECF0"/>
<rect x="205.087" y="55.0466" width="9.32554" height="6.55249" rx="1.15175" fill="#C6DDF4"/>
<rect x="623.352" y="55.0466" width="9.32554" height="6.55249" rx="1.15175" fill="#C6DDF4"/>
<rect x="479.104" y="55.0466" width="9.32554" height="6.55249" rx="1.15175" fill="#C6DDF4"/>
<rect x="280.026" y="55.0466" width="9.32554" height="6.55249" rx="1.15175" fill="#C6DDF4"/>
<rect x="698.291" y="55.0466" width="9.32554" height="6.55249" rx="1.15175" fill="#C6DDF4"/>
<rect x="220.009" y="55.0466" width="9.32554" height="6.55249" rx="1.15175" fill="#C6DDF4"/>
<rect x="638.272" y="55.0466" width="9.32554" height="6.55249" rx="1.15175" fill="#C6DDF4"/>
<rect x="494.025" y="55.0466" width="9.32554" height="6.55249" rx="1.15175" fill="#C6DDF4"/>
<rect x="294.948" y="55.0466" width="9.32554" height="6.55249" rx="1.15175" fill="#C6DDF4"/>
<rect x="713.212" y="55.0466" width="9.32554" height="6.55249" rx="1.15175" fill="#C6DDF4"/>
<rect x="249.976" y="55.0466" width="9.32554" height="6.55249" rx="1.15175" fill="#E7ECF0"/>
<rect x="668.24" y="55.0466" width="9.32554" height="6.55249" rx="1.15175" fill="#E7ECF0"/>
<rect x="324.915" y="55.0466" width="9.32554" height="6.55249" rx="1.15175" fill="#E7ECF0"/>
<rect x="265.001" y="55.0466" width="9.32554" height="6.55249" rx="1.15175" fill="#C6DDF4"/>
<rect x="683.265" y="55.0466" width="9.32554" height="6.55249" rx="1.15175" fill="#C6DDF4"/>
<rect x="339.94" y="55.0466" width="9.32554" height="6.55249" rx="1.15175" fill="#C6DDF4"/>
<rect x="234.929" y="55.0466" width="9.32554" height="6.55249" rx="1.15175" fill="#E7ECF0"/>
<rect x="653.194" y="55.0466" width="9.32554" height="6.55249" rx="1.15175" fill="#E7ECF0"/>
<rect x="508.946" y="55.0466" width="9.32554" height="6.55249" rx="1.15175" fill="#E7ECF0"/>
<rect x="309.868" y="55.0466" width="9.32554" height="6.55249" rx="1.15175" fill="#E7ECF0"/>
<rect x="364.718" y="55.0466" width="9.32554" height="6.55249" rx="1.15175" fill="#E7ECF0"/>
<rect x="115.562" y="14" width="9.32554" height="6.55249" rx="1.15175" fill="#C6DDF4"/>
<rect x="533.827" y="19.1504" width="9.32554" height="6.55249" rx="1.15175" fill="#C6DDF4"/>
<rect x="130.483" y="14" width="9.32554" height="6.55249" rx="1.15175" fill="#C6DDF4"/>
<rect x="548.748" y="19.1504" width="9.32554" height="6.55249" rx="1.15175" fill="#C6DDF4"/>
<rect x="145.404" y="14" width="9.32554" height="6.55249" rx="1.15175" fill="#C6DDF4"/>
<rect x="563.668" y="19.1504" width="9.32554" height="6.55249" rx="1.15175" fill="#C6DDF4"/>
<rect x="160.325" y="19.1504" width="9.32554" height="6.55249" rx="1.15175" fill="#E7ECF0"/>
<rect x="578.589" y="19.1504" width="9.32554" height="6.55249" rx="1.15175" fill="#E7ECF0"/>
<rect x="175.246" y="19.1504" width="9.32554" height="6.55249" rx="1.15175" fill="#C6DDF4"/>
<rect x="593.51" y="19.1504" width="9.32554" height="6.55249" rx="1.15175" fill="#C6DDF4"/>
<rect x="190.167" y="19.1504" width="9.32554" height="6.55249" rx="1.15175" fill="#C6DDF4"/>
<rect x="608.43" y="19.1504" width="9.32554" height="6.55249" rx="1.15175" fill="#C6DDF4"/>
<rect x="205.087" y="19.1504" width="9.32554" height="6.55249" rx="1.15175" fill="#E7ECF0"/>
<rect x="623.352" y="19.1504" width="9.32554" height="6.55249" rx="1.15175" fill="#E7ECF0"/>
<rect x="280.026" y="19.1504" width="9.32554" height="6.55249" rx="1.15175" fill="#E7ECF0"/>
<rect x="698.291" y="19.1504" width="9.32554" height="6.55249" rx="1.15175" fill="#E7ECF0"/>
<rect x="220.009" y="19.1504" width="9.32554" height="6.55249" rx="1.15175" fill="#E7ECF0"/>
<rect x="638.272" y="19.1504" width="9.32554" height="6.55249" rx="1.15175" fill="#E7ECF0"/>
<rect x="294.948" y="19.1504" width="9.32554" height="6.55249" rx="1.15175" fill="#E7ECF0"/>
<rect x="713.212" y="19.1504" width="9.32554" height="6.55249" rx="1.15175" fill="#E7ECF0"/>
<rect x="249.976" y="19.1504" width="9.32554" height="6.55249" rx="1.15175" fill="#E7ECF0"/>
<rect x="668.24" y="19.1504" width="9.32554" height="6.55249" rx="1.15175" fill="#E7ECF0"/>
<rect x="324.915" y="19.1504" width="9.32554" height="6.55249" rx="1.15175" fill="#E7ECF0"/>
<rect x="265.001" y="19.1504" width="9.32554" height="6.55249" rx="1.15175" fill="#C6DDF4"/>
<rect x="683.265" y="19.1504" width="9.32554" height="6.55249" rx="1.15175" fill="#C6DDF4"/>
<rect x="339.94" y="19.1504" width="9.32554" height="6.55249" rx="1.15175" fill="#C6DDF4"/>
<rect x="234.929" y="19.1504" width="9.32554" height="6.55249" rx="1.15175" fill="#E7ECF0"/>
<rect x="653.194" y="19.1504" width="9.32554" height="6.55249" rx="1.15175" fill="#E7ECF0"/>
<rect x="309.868" y="19.1504" width="9.32554" height="6.55249" rx="1.15175" fill="#C6DDF4"/>
<rect x="364.718" y="19.1504" width="9.32554" height="6.55249" rx="1.15175" fill="#E7ECF0"/>
<rect x="115.562" y="58.4722" width="9.32554" height="6.55249" rx="1.15175" fill="#E7ECF0"/>
<rect x="389.578" y="63.5188" width="9.32554" height="6.55249" rx="1.15175" fill="#E7ECF0"/>
<rect x="130.483" y="58.4722" width="9.32554" height="6.55249" rx="1.15175" fill="#C6DDF4"/>
<rect x="548.748" y="63.5188" width="9.32554" height="6.55249" rx="1.15175" fill="#C6DDF4"/>
<rect x="404.5" y="63.5188" width="9.32554" height="6.55249" rx="1.15175" fill="#C6DDF4"/>
<rect x="145.404" y="58.4722" width="9.32554" height="6.55249" rx="1.15175" fill="#C6DDF4"/>
<rect x="563.668" y="63.5188" width="9.32554" height="6.55249" rx="1.15175" fill="#C6DDF4"/>
<rect x="419.42" y="63.5188" width="9.32554" height="6.55249" rx="1.15175" fill="#C6DDF4"/>
<rect x="160.325" y="63.5188" width="9.32554" height="6.55249" rx="1.15175" fill="#E7ECF0"/>
<rect x="578.589" y="63.5188" width="9.32554" height="6.55249" rx="1.15175" fill="#E7ECF0"/>
<rect x="434.341" y="63.5188" width="9.32554" height="6.55249" rx="1.15175" fill="#E7ECF0"/>
<rect x="175.246" y="63.5188" width="9.32554" height="6.55249" rx="1.15175" fill="#E7ECF0"/>
<rect x="593.51" y="63.5188" width="9.32554" height="6.55249" rx="1.15175" fill="#E7ECF0"/>
<rect x="449.262" y="63.5188" width="9.32554" height="6.55249" rx="1.15175" fill="#E7ECF0"/>
<rect x="190.167" y="63.5188" width="9.32554" height="6.55249" rx="1.15175" fill="#E7ECF0"/>
<rect x="608.43" y="63.5188" width="9.32554" height="6.55249" rx="1.15175" fill="#E7ECF0"/>
<rect x="464.184" y="63.5188" width="9.32554" height="6.55249" rx="1.15175" fill="#E7ECF0"/>
<rect x="205.266" y="63.5629" width="9.13358" height="6.36053" rx="1.05577" fill="white" stroke="#0071E9" stroke-width="0.191959"/>
<rect x="623.435" y="63.467" width="9.32554" height="6.55249" rx="1.15175" fill="#E7ECF0"/>
<rect x="479.187" y="63.467" width="9.32554" height="6.55249" rx="1.15175" fill="#C6DDF4"/>
<path d="M280.11 64.6187C280.11 63.9826 280.626 63.467 281.262 63.467H288.284C288.92 63.467 289.435 63.9826 289.435 64.6187V68.8677C289.435 69.5038 288.92 70.0195 288.284 70.0195H281.262C280.626 70.0195 280.11 69.5038 280.11 68.8677V64.6187Z" fill="#E7ECF0"/>
<path d="M698.375 64.6187C698.375 63.9826 698.89 63.467 699.526 63.467H706.548C707.184 63.467 707.7 63.9826 707.7 64.6187V68.8677C707.7 69.5038 707.184 70.0195 706.548 70.0195H699.526C698.89 70.0195 698.375 69.5038 698.375 68.8677V64.6187Z" fill="#E7ECF0"/>
<rect x="220.009" y="63.5188" width="9.32554" height="6.55249" rx="1.15175" fill="#E7ECF0"/>
<rect x="638.272" y="63.5188" width="9.32554" height="6.55249" rx="1.15175" fill="#E7ECF0"/>
<rect x="494.025" y="63.5188" width="9.32554" height="6.55249" rx="1.15175" fill="#E7ECF0"/>
<rect x="294.948" y="63.5188" width="9.32554" height="6.55249" rx="1.15175" fill="#E7ECF0"/>
<rect x="713.212" y="63.5188" width="9.32554" height="6.55249" rx="1.15175" fill="#E7ECF0"/>
<rect x="249.976" y="63.5188" width="9.32554" height="6.55249" rx="1.15175" fill="#C6DDF4"/>
<rect x="668.24" y="63.5188" width="9.32554" height="6.55249" rx="1.15175" fill="#C6DDF4"/>
<rect x="324.915" y="63.5188" width="9.32554" height="6.55249" rx="1.15175" fill="#C6DDF4"/>
<rect x="265.001" y="63.5188" width="9.32554" height="6.55249" rx="1.15175" fill="#E7ECF0"/>
<rect x="683.265" y="63.5188" width="9.32554" height="6.55249" rx="1.15175" fill="#E7ECF0"/>
<rect x="339.94" y="63.5188" width="9.32554" height="6.55249" rx="1.15175" fill="#E7ECF0"/>
<rect x="234.929" y="63.5188" width="9.32554" height="6.55249" rx="1.15175" fill="#E7ECF0"/>
<rect x="653.194" y="63.5188" width="9.32554" height="6.55249" rx="1.15175" fill="#E7ECF0"/>
<rect x="508.946" y="63.5188" width="9.32554" height="6.55249" rx="1.15175" fill="#E7ECF0"/>
<rect x="309.868" y="63.5188" width="9.32554" height="6.55249" rx="1.15175" fill="#E7ECF0"/>
<rect x="364.718" y="63.5188" width="9.32554" height="6.55249" rx="1.15175" fill="#E7ECF0"/>
<rect x="115.562" y="22.472" width="9.32554" height="6.55249" rx="1.15175" fill="#C6DDF4"/>
<rect x="533.827" y="27.6225" width="9.32554" height="6.55249" rx="1.15175" fill="#C6DDF4"/>
<rect x="130.483" y="22.4722" width="9.32554" height="6.55249" rx="1.15175" fill="#C6DDF4"/>
<rect x="548.748" y="27.6225" width="9.32554" height="6.55249" rx="1.15175" fill="#C6DDF4"/>
<rect x="145.404" y="22.4722" width="9.32554" height="6.55249" rx="1.15175" fill="#E7ECF0"/>
<rect x="563.668" y="27.6225" width="9.32554" height="6.55249" rx="1.15175" fill="#E7ECF0"/>
<rect x="160.325" y="27.6225" width="9.32554" height="6.55249" rx="1.15175" fill="#E7ECF0"/>
<rect x="578.589" y="27.6225" width="9.32554" height="6.55249" rx="1.15175" fill="#E7ECF0"/>
<rect x="175.246" y="27.6225" width="9.32554" height="6.55249" rx="1.15175" fill="#C6DDF4"/>
<rect x="593.51" y="27.6225" width="9.32554" height="6.55249" rx="1.15175" fill="#C6DDF4"/>
<rect x="190.167" y="27.6225" width="9.32554" height="6.55249" rx="1.15175" fill="#C6DDF4"/>
<rect x="608.43" y="27.6225" width="9.32554" height="6.55249" rx="1.15175" fill="#C6DDF4"/>
<rect x="205.087" y="27.6225" width="9.32554" height="6.55249" rx="1.15175" fill="#E7ECF0"/>
<rect x="623.352" y="27.6225" width="9.32554" height="6.55249" rx="1.15175" fill="#E7ECF0"/>
<rect x="280.026" y="27.6225" width="9.32554" height="6.55249" rx="1.15175" fill="#E7ECF0"/>
<rect x="698.291" y="27.6225" width="9.32554" height="6.55249" rx="1.15175" fill="#E7ECF0"/>
<rect x="220.009" y="27.6225" width="9.32554" height="6.55249" rx="1.15175" fill="#C6DDF4"/>
<rect x="638.272" y="27.6225" width="9.32554" height="6.55249" rx="1.15175" fill="#C6DDF4"/>
<rect x="294.948" y="27.6225" width="9.32554" height="6.55249" rx="1.15175" fill="#C6DDF4"/>
<rect x="713.212" y="27.6225" width="9.32554" height="6.55249" rx="1.15175" fill="#C6DDF4"/>
<rect x="249.976" y="27.6225" width="9.32554" height="6.55249" rx="1.15175" fill="#C6DDF4"/>
<rect x="668.24" y="27.6225" width="9.32554" height="6.55249" rx="1.15175" fill="#C6DDF4"/>
<rect x="324.915" y="27.6225" width="9.32554" height="6.55249" rx="1.15175" fill="#C6DDF4"/>
<rect x="265.001" y="27.6225" width="9.32554" height="6.55249" rx="1.15175" fill="#C6DDF4"/>
<rect x="683.265" y="27.6225" width="9.32554" height="6.55249" rx="1.15175" fill="#C6DDF4"/>
<rect x="339.94" y="27.6225" width="9.32554" height="6.55249" rx="1.15175" fill="#C6DDF4"/>
<rect x="234.929" y="27.6225" width="9.32554" height="6.55249" rx="1.15175" fill="#E7ECF0"/>
<rect x="653.194" y="27.6225" width="9.32554" height="6.55249" rx="1.15175" fill="#E7ECF0"/>
<rect x="309.868" y="27.6225" width="9.32554" height="6.55249" rx="1.15175" fill="#E7ECF0"/>
<rect x="364.718" y="27.6225" width="9.32554" height="6.55249" rx="1.15175" fill="#E7ECF0"/>
<path d="M208.109 67.9624V66.4652L208.24 66.6011H207.768V66.35H208.408V67.9624H208.109ZM209.401 67.9855C209.274 67.9855 209.158 67.9532 209.055 67.8887C208.954 67.8242 208.874 67.7306 208.816 67.6077C208.758 67.4833 208.728 67.3328 208.728 67.1562C208.728 66.9796 208.758 66.8299 208.816 66.707C208.874 66.5827 208.954 66.4882 209.055 66.4237C209.158 66.3592 209.274 66.327 209.401 66.327C209.53 66.327 209.645 66.3592 209.746 66.4237C209.848 66.4882 209.928 66.5827 209.986 66.707C210.046 66.8299 210.076 66.9796 210.076 67.1562C210.076 67.3328 210.046 67.4833 209.986 67.6077C209.928 67.7306 209.848 67.8242 209.746 67.8887C209.645 67.9532 209.53 67.9855 209.401 67.9855ZM209.401 67.7252C209.476 67.7252 209.541 67.7052 209.597 67.6653C209.652 67.6238 209.695 67.5609 209.726 67.4764C209.758 67.3919 209.774 67.2852 209.774 67.1562C209.774 67.0257 209.758 66.919 209.726 66.836C209.695 66.7516 209.652 66.6894 209.597 66.6495C209.541 66.608 209.476 66.5873 209.401 66.5873C209.329 66.5873 209.264 66.608 209.207 66.6495C209.152 66.6894 209.108 66.7516 209.076 66.836C209.045 66.919 209.03 67.0257 209.03 67.1562C209.03 67.2852 209.045 67.3919 209.076 67.4764C209.108 67.5609 209.152 67.6238 209.207 67.6653C209.264 67.7052 209.329 67.7252 209.401 67.7252ZM210.143 67.9624L210.868 66.35H211.163L211.891 67.9624H211.578L210.954 66.5089H211.074L210.452 67.9624H210.143ZM210.477 67.5893L210.558 67.3543H211.428L211.509 67.5893H210.477Z" fill="#0071E9"/>
<g filter="url(#filter0_f_1533_979)">
<path d="M322.919 77L314.45 72.1051H502.955L516.069 77H322.919Z" fill="#C3CDD7"/>
</g>
<g filter="url(#filter1_f_1533_979)">
<path d="M322.919 3L314.45 7.89494H502.955L516.069 3H322.919Z" fill="#C3CDD7"/>
</g>
<rect x="389.578" y="10.6784" width="9.32554" height="6.55249" rx="1.15175" fill="#C6DDF4"/>
<rect x="404.5" y="10.6784" width="9.32554" height="6.55249" rx="1.15175" fill="#E7ECF0"/>
<rect x="419.42" y="10.6784" width="9.32554" height="6.55249" rx="1.15175" fill="#C6DDF4"/>
<rect x="434.341" y="10.6784" width="9.32554" height="6.55249" rx="1.15175" fill="#C6DDF4"/>
<rect x="449.262" y="10.6784" width="9.32554" height="6.55249" rx="1.15175" fill="#C6DDF4"/>
<rect x="464.184" y="10.6784" width="9.32554" height="6.55249" rx="1.15175" fill="#E7ECF0"/>
<rect x="479.104" y="10.6784" width="9.32554" height="6.55249" rx="1.15175" fill="#C6DDF4"/>
<rect x="494.025" y="10.6784" width="9.32554" height="6.55249" rx="1.15175" fill="#C6DDF4"/>
<rect x="508.946" y="10.6784" width="9.32554" height="6.55249" rx="1.15175" fill="#C6DDF4"/>
<rect x="389.578" y="19.1504" width="9.32554" height="6.55249" rx="1.15175" fill="#E7ECF0"/>
<rect x="404.5" y="19.1504" width="9.32554" height="6.55249" rx="1.15175" fill="#C6DDF4"/>
<rect x="419.42" y="19.1504" width="9.32554" height="6.55249" rx="1.15175" fill="#C6DDF4"/>
<rect x="434.341" y="19.1504" width="9.32554" height="6.55249" rx="1.15175" fill="#E7ECF0"/>
<rect x="449.262" y="19.1504" width="9.32554" height="6.55249" rx="1.15175" fill="#E7ECF0"/>
<rect x="464.184" y="19.1504" width="9.32554" height="6.55249" rx="1.15175" fill="#E7ECF0"/>
<rect x="479.104" y="19.1504" width="9.32554" height="6.55249" rx="1.15175" fill="#C6DDF4"/>
<rect x="494.025" y="19.1504" width="9.32554" height="6.55249" rx="1.15175" fill="#C6DDF4"/>
<rect x="508.946" y="19.1504" width="9.32554" height="6.55249" rx="1.15175" fill="#E7ECF0"/>
<rect x="389.578" y="27.6225" width="9.32554" height="6.55249" rx="1.15175" fill="#E7ECF0"/>
<rect x="404.5" y="27.6225" width="9.32554" height="6.55249" rx="1.15175" fill="#C6DDF4"/>
<rect x="419.42" y="27.6225" width="9.32554" height="6.55249" rx="1.15175" fill="#C6DDF4"/>
<rect x="434.341" y="27.6225" width="9.32554" height="6.55249" rx="1.15175" fill="#E7ECF0"/>
<rect x="449.262" y="27.6225" width="9.32554" height="6.55249" rx="1.15175" fill="#E7ECF0"/>
<rect x="464.184" y="27.6225" width="9.32554" height="6.55249" rx="1.15175" fill="#E7ECF0"/>
<path d="M479.187 28.7225C479.187 28.0864 479.703 27.5707 480.339 27.5707H487.361C487.997 27.5707 488.513 28.0864 488.513 28.7225V32.9715C488.513 33.6076 487.997 34.1232 487.361 34.1232H480.339C479.703 34.1232 479.187 33.6076 479.187 32.9715V28.7225Z" fill="#E7ECF0"/>
<rect x="494.025" y="27.6225" width="9.32554" height="6.55249" rx="1.15175" fill="#E7ECF0"/>
<rect x="508.946" y="27.6225" width="9.32554" height="6.55249" rx="1.15175" fill="#E7ECF0"/>
<defs>
<filter id="filter0_f_1533_979" x="311.954" y="69.6096" width="206.61" height="9.88587" filterUnits="userSpaceOnUse" color-interpolation-filters="sRGB">
<feFlood flood-opacity="0" result="BackgroundImageFix"/>
<feBlend mode="normal" in="SourceGraphic" in2="BackgroundImageFix" result="shape"/>
<feGaussianBlur stdDeviation="1.24773" result="effect1_foregroundBlur_1533_979"/>
</filter>
<filter id="filter1_f_1533_979" x="311.954" y="0.504539" width="206.61" height="9.88587" filterUnits="userSpaceOnUse" color-interpolation-filters="sRGB">
<feFlood flood-opacity="0" result="BackgroundImageFix"/>
<feBlend mode="normal" in="SourceGraphic" in2="BackgroundImageFix" result="shape"/>
<feGaussianBlur stdDeviation="1.24773" result="effect1_foregroundBlur_1533_979"/>
</filter>
</defs>
</svg>
