<?xml version="1.0" encoding="UTF-8"?>
<svg id="Layer_1" xmlns="http://www.w3.org/2000/svg" version="1.1" viewBox="0 0 59 59">
  <!-- Generator: Adobe Illustrator 29.6.1, SVG Export Plug-In . SVG Version: 2.1.1 Build 9)  -->
  <path d="M11.41,11.62c4.77-4.77,11.1-7.39,17.84-7.39,5.15,0,10.14,1.57,14.33,4.46l-3.24.33.34,3.33,8.71-.89-.89-8.71-3.33.34.29,2.82C40.72,2.65,35.08.88,29.25.88c-7.64,0-14.81,2.97-20.21,8.37C3.64,14.65.67,21.83.67,29.46c0,5.72,1.68,11.23,4.86,15.96l2.78-1.87c-.04-.06-.08-.12-.11-.17-2.73-4.13-4.18-8.93-4.18-13.91,0-6.74,2.62-13.08,7.39-17.84Z"/>
  <path d="M52.98,13.5l-2.78,1.87c.04.06.08.12.11.17,2.73,4.13,4.18,8.93,4.18,13.91,0,6.74-2.62,13.08-7.39,17.84-4.77,4.77-11.1,7.39-17.84,7.39-5.15,0-10.14-1.57-14.33-4.46l3.24-.33-.34-3.33-8.71.89.89,8.71,3.33-.34-.29-2.82c4.74,3.27,10.38,5.04,16.21,5.04,7.64,0,14.81-2.97,20.21-8.37,5.4-5.4,8.37-12.58,8.37-20.21,0-5.72-1.68-11.23-4.86-15.96h0Z"/>
  <path d="M14.62,32.98l2.17-2c1.64-1.51,1.95-2.53,1.95-3.65,0-2.14-1.82-3.5-4.47-3.5-2.27,0-3.89.95-4.76,2.4l2.41,1.35c.46-.74,1.22-1.12,2.05-1.12.99,0,1.48.44,1.48,1.18,0,.48-.13,1-1.05,1.86l-4.3,4.02v2.04h8.95v-2.58h-4.44,0Z"/>
  <path d="M29.39,33.35h1.71v-2.58h-1.71v-1.95h-3.07v1.95h-2.33l4.68-6.72h-3.37l-5.16,7.18v2.12h6.08v2.2h3.17v-2.2Z"/>
  <path d="M34.06,37.2l5.42-15.48h-2.78l-5.42,15.48h2.78Z"/>
  <path d="M42.24,28.41v-1.77h3.02l-3.88,8.92h3.55l4.06-9.46v-2.04h-9.53v4.35h2.78Z"/>
</svg>