<?xml version="1.0" encoding="UTF-8"?>
<svg id="Layer_1" xmlns="http://www.w3.org/2000/svg" version="1.1" viewBox="0 0 53 59">
  <!-- Generator: Adobe Illustrator 29.6.1, SVG Export Plug-In . SVG Version: 2.1.1 Build 9)  -->
  <path d="M52.11,40.47c-.37-1.1-1.25-1.9-2.48-2.25-1.32-.38-3.05-.26-5.12.36l-9.44,2.8c-.04-.08-.08-.16-.13-.24-.53-.92-1.37-1.58-2.39-1.85l-6.7-1.81c-4.89-3.46-7.52-2.47-11.37-.56-1.84.91-3.68,1.79-5.41,2.62l-.36-.88c-.48-1.17-1.82-1.73-2.98-1.24l-3.62,1.52c-.56.24-1,.68-1.23,1.25-.23.57-.23,1.19,0,1.76l6.13,14.88c.36.88,1.21,1.42,2.11,1.42.29,0,.59-.06.87-.18l3.62-1.52c.56-.24,1-.68,1.23-1.25.23-.57.23-1.19,0-1.76l-.41-1,2.36-1.16c.86-.42,1.73-.5,2.65-.23l7.53,2.21c.55.16,1.13.23,1.71.23,2,0,4.1-.83,5.87-1.52.16-.06.31-.12.46-.18l14.14-5.5c2.29-.89,3.7-3.7,2.97-5.9h0ZM13.49,54.72c-.08.2-.24.36-.44.44l-3.62,1.52c-.41.17-.89-.03-1.06-.44l-6.13-14.88c-.08-.21-.09-.43,0-.63.08-.2.24-.36.44-.44l3.62-1.52c.1-.04.21-.06.31-.06.32,0,.62.19.75.51l6.13,14.88c.08.21.09.43,0,.63h0ZM48.61,45l-14.14,5.5c-.15.06-.3.12-.46.18-2.07.81-4.65,1.83-6.64,1.24l-7.53-2.21c-1.27-.37-2.51-.26-3.7.32l-2.28,1.12-4.23-10.27c1.76-.84,3.62-1.73,5.49-2.66,3.6-1.78,5.69-2.57,9.99.52.07.05.15.09.23.11l6.83,1.85c.64.17,1.17.59,1.5,1.17.33.58.42,1.25.25,1.89-.17.64-.58,1.18-1.15,1.51-.57.34-1.24.42-1.88.25l-9.08-2.46c-.39-.11-.79.13-.9.52-.1.39.13.8.52.9l9.08,2.46c1.01.27,2.07.13,2.99-.4.91-.53,1.57-1.39,1.84-2.41.12-.45.16-.9.12-1.35l9.46-2.8c3.13-.93,5.3-.57,5.81.95.48,1.44-.56,3.44-2.11,4.05h0ZM24.12,32.96l3.16-.64,1.03,3.09c.09.28.33.47.62.5.02,0,.05,0,.07,0,.26,0,.5-.14.63-.37l4.18-7.32c.57.09,1.15.14,1.75.14s1.18-.05,1.75-.14l4.18,7.32c.13.23.37.37.63.37.02,0,.05,0,.07,0,.29-.03.53-.22.62-.5l1.03-3.09,3.16.64c.28.06.57-.06.74-.29.17-.24.18-.55.04-.8l-4.08-7.14c1.79-1.98,2.88-4.61,2.88-7.5,0-6.14-4.94-11.13-11.02-11.13s-11.02,4.99-11.02,11.13c0,2.89,1.09,5.52,2.88,7.5l-4.08,7.14c-.14.25-.13.56.04.8s.46.35.74.29h0ZM43.51,30.74c-.36-.07-.72.14-.84.49l-.72,2.15-3.15-5.51c1.41-.44,2.71-1.16,3.82-2.09l3.09,5.41-2.21-.45ZM35.57,7.57c5.27,0,9.56,4.33,9.56,9.66s-4.29,9.66-9.56,9.66-9.56-4.33-9.56-9.66,4.29-9.66,9.56-9.66ZM28.51,25.78c1.11.94,2.4,1.65,3.82,2.09l-3.15,5.51-.72-2.15c-.12-.35-.48-.56-.84-.49l-2.21.45,3.09-5.41ZM33.11,15.7c0-1.02.72-1.9,1.72-2.19v-.31c-.02-.41.3-.75.71-.76.4-.01.74.31.75.72v.36c.55.16,1.14.48,1.43.93.22.34.13.8-.21,1.02-.34.22-.79.13-1.01-.21-.1-.14-.65-.39-.92-.39-.55,0-1,.37-1,.82s.45.82,1,.82c1.36,0,2.46,1.03,2.46,2.3,0,1.02-.72,1.89-1.71,2.19v.26c.02.41-.3.75-.71.76,0,0-.01,0-.02,0-.4,0-.72-.32-.73-.72v-.28c-.54-.15-.91-.46-1.24-.78-.29-.28-.31-.75-.03-1.04.28-.3.74-.31,1.03-.03.38.36.55.47.94.47.55,0,1-.37,1-.82s-.45-.82-1-.82c-1.36,0-2.46-1.03-2.46-2.3h0ZM35.57,23.68c3.52,0,6.38-2.89,6.38-6.45s-2.86-6.45-6.38-6.45-6.38,2.89-6.38,6.45,2.86,6.45,6.38,6.45ZM35.57,12.26c2.71,0,4.92,2.23,4.92,4.97s-2.21,4.97-4.92,4.97-4.92-2.23-4.92-4.97,2.21-4.97,4.92-4.97Z"/>
</svg>