<?xml version="1.0" encoding="UTF-8"?>
<svg id="Layer_1" xmlns="http://www.w3.org/2000/svg" version="1.1" viewBox="0 0 59 59">
  <!-- Generator: Adobe Illustrator 29.6.1, SVG Export Plug-In . SVG Version: 2.1.1 Build 9)  -->
  <path d="M53.07,30.67c0-1.35-.12-2.7-.35-4.03l-1.91.33c1.43,8.17-2,16.42-8.79,21.18l-1.57-2.56c-.53-.86-.58-1.93-.12-2.83l.44-.88c.16-.33.5-.54.87-.54h1.37c1.19,0,2.27-.72,2.71-1.83l1.31-3.29c.14-.34.21-.71.21-1.08v-2.14c0-.52-.2-1.01-.57-1.38l-1.17-1.17c-.59-.59-1.5-.74-2.24-.36l-2.39,1.2c-.27.14-.6.14-.87,0l-3.89-1.94c-.33-.16-.54-.5-.53-.87v-2.69c0-1.07-.87-1.94-1.94-1.94-.54,0-.97-.44-.97-.97v-.97c0-.31.14-.59.39-.78l3.11-2.33-1.17-1.55-3.11,2.33c-.73.55-1.16,1.42-1.17,2.33v.97c0,1.61,1.31,2.92,2.92,2.92v2.69c0,1.11.62,2.12,1.61,2.61l3.89,1.94c.82.41,1.79.41,2.61,0l2.39-1.2,1.17,1.17v2.14c0,.12-.02.25-.07.36l-1.32,3.29c-.15.37-.5.61-.9.61h-1.37c-1.11,0-2.12.62-2.61,1.61l-.44.88c-.76,1.5-.68,3.28.2,4.71l1.58,2.59c-5.99,3.45-13.27,3.78-19.54.88l1.19-.8c.16-.11.34-.16.54-.17h2.49c.77,0,1.52-.31,2.06-.85l2.75-2.75c.55-.55.86-1.29.85-2.06v-4.49c0-.53-.14-1.04-.41-1.5l-2.08-3.47c-.53-.87-1.47-1.4-2.49-1.4h-2.73c-.98,0-1.89.49-2.43,1.3l-1.07,1.62h-2.4c-1.07,0-1.94.87-1.94,1.94v1.86c0,.33-.17.64-.45.82l-3.03,1.96c-2.17-3.42-3.33-7.38-3.33-11.43,0-.33,0-.65.02-.97h1.69c.37,0,.71.21.87.54l1.14,2.28c.33.66,1,1.07,1.74,1.07h1.03c.61,0,1.19-.28,1.55-.77.37-.49.49-1.12.32-1.71l-1.24-4.32h1.92c.66,0,1.3-.23,1.82-.64l3.17-2.54c1.02-.82,1.37-2.22.86-3.42l-1.66-3.89c-.19-.45-.02-.97.39-1.22l2.45-1.47c.89-.53,1.43-1.5,1.42-2.53l-.02-1.42c3.13-.59,6.36-.47,9.44.36l.5-1.87c-9.65-2.58-19.87,1.27-25.42,9.58s-5.19,19.23.9,27.15c6.08,7.92,16.54,11.09,26,7.88s15.82-12.09,15.83-22.08ZM23.9,10.12v.99c.02.35-.16.67-.46.84l-2.45,1.47c-1.25.75-1.75,2.31-1.18,3.65l1.66,3.89c.17.4.06.87-.29,1.14l-3.17,2.54c-.17.14-.39.21-.61.21h-1.92c-.61,0-1.19.29-1.55.77-.37.49-.49,1.12-.32,1.71l1.24,4.32h-1.03l-1.14-2.28c-.49-.99-1.5-1.62-2.61-1.61h-1.51c1.17-8.39,7.17-15.31,15.32-17.64ZM12.81,43.7l2.97-1.91c.83-.54,1.34-1.46,1.34-2.45v-1.86h2.4c.65,0,1.26-.33,1.62-.87l1.08-1.62c.18-.27.48-.43.81-.43h2.73c.34,0,.65.17.83.46l2.07,3.47c.09.15.14.32.14.5v4.49c0,.26-.1.51-.28.69l-2.75,2.75c-.18.18-.43.29-.69.28h-2.49c-.58,0-1.14.17-1.62.49l-2.07,1.38c-2.34-1.39-4.4-3.22-6.06-5.37Z"/>
  <path d="M2.61,31.62l-1.94.14c.05.66.11,1.32.2,1.98l1.93-.27c-.08-.61-.15-1.24-.19-1.85Z"/>
  <path d="M5.55,17.24l-1.73-.89c-.3.58-.59,1.19-.85,1.8l1.78.77c.25-.57.51-1.13.79-1.68Z"/>
  <path d="M3.12,35.3l-1.9.4c.14.65.29,1.3.47,1.93l1.87-.53c-.17-.59-.31-1.2-.44-1.8Z"/>
  <path d="M3.09,24.23l-1.9-.39c-.13.64-.24,1.3-.33,1.96l1.93.26c.08-.61.19-1.23.31-1.83Z"/>
  <path d="M7.48,14.07l-1.59-1.12c-.38.54-.74,1.1-1.09,1.67l1.66,1.01c.32-.53.66-1.05,1.02-1.55Z"/>
  <path d="M4.08,20.65l-1.83-.65c-.22.63-.42,1.26-.6,1.9l1.87.52c.16-.59.35-1.19.56-1.77Z"/>
  <path d="M2.6,27.91l-1.94-.13c-.04.63-.06,1.28-.06,1.92v.06l1.94-.06c0-.6.02-1.2.06-1.8Z"/>
  <path d="M4.12,38.87l-1.83.65c.22.62.47,1.25.73,1.85l1.78-.78c-.25-.56-.48-1.14-.69-1.72Z"/>
  <path d="M9.82,11.18l-1.42-1.32c-.45.49-.89.99-1.3,1.5l1.51,1.22c.39-.48.8-.95,1.22-1.4Z"/>
  <path d="M25.96,2.76l-.27-1.93c-.65.09-1.31.21-1.96.34l.4,1.9c.61-.13,1.22-.24,1.83-.32Z"/>
  <path d="M29.66,2.49V.55c-.67,0-1.34.03-2,.07l.14,1.94c.61-.05,1.23-.07,1.86-.07Z"/>
  <path d="M22.32,3.52l-.53-1.87c-.63.18-1.27.38-1.89.61l.66,1.83c.58-.21,1.18-.4,1.77-.57Z"/>
  <path d="M12.52,8.64l-1.23-1.5c-.51.42-1.01.86-1.5,1.31l1.33,1.42c.45-.42.92-.83,1.4-1.22Z"/>
  <path d="M18.84,4.77l-.78-1.78c-.6.26-1.2.55-1.79.86l.9,1.72c.55-.29,1.11-.55,1.67-.8Z"/>
  <path d="M15.55,6.49l-1.02-1.66c-.56.35-1.12.72-1.66,1.1l1.13,1.58c.5-.35,1.02-.7,1.55-1.02Z"/>
  <path d="M40.61,54.66l.78,1.78c.61-.26,1.21-.55,1.79-.86l-.89-1.72c-.55.28-1.11.55-1.68.8Z"/>
  <path d="M49.64,48.27l1.42,1.33c.45-.49.89-.99,1.31-1.5l-1.51-1.23c-.39.48-.8.95-1.22,1.4Z"/>
  <path d="M46.93,50.81l1.23,1.51c.51-.42,1.01-.86,1.5-1.31l-1.33-1.42c-.45.42-.92.83-1.4,1.22Z"/>
  <path d="M51.99,45.39l1.59,1.13c.38-.54.75-1.1,1.09-1.66l-1.66-1.01c-.32.52-.66,1.05-1.02,1.55Z"/>
  <path d="M43.9,52.95l1.01,1.66c.56-.34,1.12-.71,1.66-1.09l-1.12-1.59c-.5.36-1.02.7-1.55,1.02Z"/>
  <path d="M37.12,55.9l.52,1.87c.63-.18,1.27-.38,1.9-.6l-.65-1.83c-.58.21-1.17.4-1.77.56Z"/>
  <path d="M56.9,31.56l1.94.13c.04-.66.07-1.33.07-1.99h-1.94c0,.62-.02,1.24-.06,1.86Z"/>
  <path d="M56.4,35.24l1.9.39c.13-.64.25-1.31.34-1.96l-1.93-.26c-.08.62-.19,1.23-.31,1.83Z"/>
  <path d="M55.4,38.81l1.83.65c.22-.63.42-1.26.6-1.9l-1.87-.52c-.17.59-.35,1.19-.56,1.77Z"/>
  <path d="M53.92,42.22l1.73.9c.3-.58.59-1.19.86-1.8l-1.78-.78c-.25.57-.51,1.13-.8,1.68Z"/>
  <path d="M5.61,42.26l-1.72.9c.31.58.64,1.17.98,1.73l1.66-1.01c-.32-.52-.63-1.07-.92-1.61Z"/>
  <path d="M11.38,52.35c.51.42,1.05.82,1.59,1.2l1.12-1.59c-.51-.36-1-.73-1.48-1.12l-1.22,1.51Z"/>
  <path d="M18.17,56.46c.6.26,1.23.51,1.86.73l.65-1.83c-.58-.21-1.17-.44-1.73-.68l-.77,1.78Z"/>
  <path d="M14.63,54.63c.57.34,1.15.67,1.74.97l.89-1.73c-.55-.28-1.09-.59-1.62-.91l-1.01,1.66Z"/>
  <path d="M8.47,49.63c.45.49.93.96,1.41,1.4l1.33-1.42c-.45-.42-.89-.86-1.32-1.31l-1.42,1.33Z"/>
  <path d="M7.54,45.43l-1.59,1.12c.38.54.79,1.07,1.2,1.58l1.5-1.23c-.39-.48-.76-.97-1.12-1.47Z"/>
  <path d="M33.48,56.66l.26,1.92c.65-.09,1.31-.2,1.96-.34l-.39-1.9c-.61.13-1.22.23-1.83.32Z"/>
  <path d="M25.82,58.59c.65.09,1.32.15,1.98.19l.13-1.94c-.62-.04-1.24-.1-1.85-.19l-.26,1.93Z"/>
  <path d="M29.78,56.91v1.94c.67,0,1.33-.02,1.99-.07l-.13-1.94c-.61.05-1.23.07-1.86.07Z"/>
  <path d="M21.92,57.79c.64.18,1.29.33,1.93.47l.39-1.9c-.6-.12-1.21-.27-1.8-.44l-.52,1.87Z"/>
  <path d="M37.72,8.75l-.56,9.5c-.08,1.39.43,2.74,1.41,3.72l1.89,1.88,3.43-8.93,3.47,3.47v4.29c0,.77.31,1.51.85,2.06l1.68,1.69,2.06-3.44.49.49c.73.76,1.82,1.06,2.84.8,1.02-.27,1.81-1.06,2.08-2.08.27-1.02-.04-2.1-.8-2.84l-.49-.49,3.44-2.06-1.68-1.69c-.55-.55-1.29-.86-2.06-.85h-4.29l-3.46-3.47,8.93-3.44-1.89-1.89c-.98-.98-2.34-1.5-3.72-1.41l-9.5.56-3.13-3.13c-1.15-1.1-2.97-1.1-4.12,0-1.14,1.14-1.14,2.98,0,4.12l3.13,3.13ZM39.73,20.35c-.45-.56-.67-1.27-.63-1.98l.46-7.77,2.83,2.83-2.66,6.92ZM49.52,23.29c-.14-.17-.21-.39-.21-.61v-2.34l1.24,1.24-1.03,1.71ZM55.77,16.21c.22,0,.43.08.61.21l-1.71,1.03-1.24-1.24h2.35ZM51.46,6.01c.72-.04,1.42.18,1.98.63l-6.93,2.66-2.83-2.83,7.78-.46ZM35.96,2.88c.38-.38.99-.38,1.37,0l17.87,17.87c.38.38.38.99,0,1.37-.38.37-.99.37-1.37,0L35.96,4.25c-.38-.38-.38-.99,0-1.37Z"/>
</svg>