<?xml version="1.0" encoding="UTF-8"?>
<svg id="Layer_1" xmlns="http://www.w3.org/2000/svg" version="1.1" viewBox="0 0 53 59">
  <!-- Generator: Adobe Illustrator 29.6.1, SVG Export Plug-In . SVG Version: 2.1.1 Build 9)  -->
  <g id="earth_x2C__globe_x2C__planet_x2C__Air_Expeditions">
    <g>
      <path d="M26.24,18.22s-.04,0-.05,0c-.48-.03-.85-.44-.82-.92.01-.17.03-.33.06-.5.11-.57.47-1.07.97-1.37l3-1.8c.06-.03.1-.08.13-.14l1.12-2.24c.25-.5.7-.88,1.24-1.05l1.6-.5c.46-.15.95.11,1.1.57s-.11.95-.57,1.1l-1.6.51c-.09.03-.16.09-.2.17l-1.12,2.24c-.18.36-.46.65-.79.85l-3,1.8c-.08.05-.14.13-.15.22-.02.09-.03.18-.03.26-.03.46-.41.82-.87.82Z"/>
      <path d="M9.93,45.03c-.19,0-.38-.06-.54-.19-4.42-3.48-7.39-8.42-8.35-13.93-.04-.26.03-.51.19-.71.17-.2.41-.31.67-.31h.74c.51,0,.96-.38,1.04-.89.07-.48.52-.8,1-.73.48.07.8.52.73,1-.19,1.24-1.21,2.2-2.44,2.35.98,4.33,3.31,8.23,6.68,11.17l1.47-2.96c.2-.39.48-.74.83-1l2.22-1.66c.15-.12.27-.26.34-.44l1.17-2.93c.05-.13.07-.25.07-.38v-1.67c0-.41-.22-.77-.59-.94-.37-.18-.79-.13-1.11.13-.61.49-1.23.71-1.86.71h-.84c-1.28,0-2.4-.87-2.71-2.12l-.18-.73c-.19-.77-.05-1.58.39-2.24l.99-1.46c.52-.77,1.38-1.23,2.31-1.23h.18c.39,0,.73-.2.92-.55.19-.34.17-.74-.04-1.07-.31-.48-.47-1.01-.47-1.55v-2.29c0-1.06.59-2.02,1.54-2.5l1.9-.95c.46-.23.69-.73.55-1.18-.26-.81-.83-1.69-1.64-1.72h-2.94c-.48,0-.87-.39-.87-.87s.39-.87.87-.87h2.97c1.46.05,2.7,1.18,3.27,2.93.41,1.25-.21,2.66-1.43,3.27l-1.9.95c-.35.18-.57.54-.57.93v2.3c0,.21.06.4.17.57.58.89.62,1.99.13,2.89-.5.91-1.41,1.46-2.45,1.46h-.18c-.35,0-.67.17-.87.46l-.99,1.46c-.17.25-.22.55-.15.84l.18.73c.12.47.53.79,1.02.79h.84c.24,0,.47-.08.66-.23.96-.77,2.09-.9,3.07-.43s1.58,1.43,1.58,2.52v1.67c0,.35-.07.69-.2,1.02l-1.17,2.93c-.19.48-.5.88-.91,1.19l-2.22,1.67c-.13.1-.24.22-.31.37l-1.96,3.95c-.12.24-.33.41-.59.46-.06.02-.13.02-.19.02Z"/>
      <path d="M3.91,27.59c-.21,0-.42-.07-.58-.22-.39-.29-.52-.87-.23-1.25.28-.39.79-.51,1.18-.22.07.05.15.11.22.17.36.32.39.87.07,1.23-.17.19-.41.29-.65.29Z"/>
      <path d="M16.99,9.14c-.07,0-.14,0-.21-.03l-.56-.14c-.47-.12-.75-.59-.63-1.06s.59-.75,1.06-.64l.56.14c.47.12.75.59.63,1.06-.1.4-.46.66-.85.66Z"/>
      <path d="M21.13,10.12c-.19,0-.39-.02-.59-.07l-1.83-.46c-.47-.12-.75-.59-.64-1.06.12-.47.59-.76,1.06-.64l1.83.46c.26.06.45-.04.54-.11.16-.12.24-.3.24-.5v-2.55c0-.48.39-.87.87-.87s.87.39.87.87v2.55c0,.74-.33,1.42-.92,1.88-.42.33-.93.5-1.46.5Z"/>
      <path d="M30.16,10.7c-.48,0-.87-.39-.87-.87s.39-.95.87-.95.87.32.87.8v.15c0,.48-.39.87-.87.87Z"/>
      <path d="M13.59,42.32c-.48,0-.87-.39-.87-.87s.39-.95.87-.95.87.32.87.8v.15c0,.48-.39.87-.87.87Z"/>
      <path d="M24.14,18.22c-.48,0-.87-.39-.87-.87s.39-.95.87-.95.87.32.87.8v.15c0,.48-.39.87-.87.87Z"/>
      <path d="M34.74,55.81c-.48,0-.87-.39-.87-.87v-.87c0-.48.39-.87.87-.87s.87.39.87.87v.87c0,.48-.39.87-.87.87Z"/>
      <path d="M34.74,51.44c-.48,0-.87-.39-.87-.87v-.87c0-.48.39-.87.87-.87s.87.39.87.87v.87c0,.48-.39.87-.87.87Z"/>
      <path d="M32.99,53.19h-.87c-.48,0-.87-.39-.87-.87s.39-.87.87-.87h.87c.48,0,.87.39.87.87s-.39.87-.87.87Z"/>
      <path d="M37.36,53.19h-.87c-.48,0-.87-.39-.87-.87s.39-.87.87-.87h.87c.48,0,.87.39.87.87s-.39.87-.87.87Z"/>
      <path d="M48.71,51.44c-.48,0-.87-.39-.87-.87v-1.75c0-.48.39-.87.87-.87s.87.39.87.87v1.75c0,.48-.39.87-.87.87Z"/>
      <path d="M48.71,46.2c-.48,0-.87-.39-.87-.87v-1.75c0-.48.39-.87.87-.87s.87.39.87.87v1.75c0,.48-.39.87-.87.87Z"/>
      <path d="M46.96,47.95h-1.75c-.48,0-.87-.39-.87-.87s.39-.87.87-.87h1.75c.48,0,.87.39.87.87s-.39.87-.87.87Z"/>
      <path d="M52.2,47.95h-1.75c-.48,0-.87-.39-.87-.87s.39-.87.87-.87h1.75c.48,0,.87.39.87.87s-.39.87-.87.87Z"/>
      <path d="M17.03,48.75c-.08,0-.17-.01-.26-.04-8.17-2.51-14.2-9.28-15.71-17.68C-1.17,18.71,7.05,6.87,19.37,4.64c8.37-1.51,16.8,1.74,22.01,8.48.3.38.23.93-.16,1.23-.38.29-.93.22-1.23-.16-4.82-6.22-12.6-9.22-20.32-7.83C8.31,8.42.72,19.35,2.78,30.72c1.4,7.75,6.96,14,14.51,16.32.46.14.72.63.58,1.09-.12.37-.46.62-.83.62Z"/>
      <path d="M16.62,56.69c-.35,0-.69-.22-.82-.57-.17-.45.06-.96.51-1.12,5.33-2,13.1-8.63,18.47-15.76.29-.38.84-.46,1.22-.17s.46.84.17,1.22c-5.64,7.48-13.55,14.2-19.25,16.34-.1.04-.2.06-.31.06Z"/>
      <path d="M7.88,56.14c-1.52,0-2.86-.37-3.98-1.15-3.14-2.18-4.02-7.11-2.49-13.89.11-.47.58-.77,1.04-.66.47.11.77.57.66,1.04-1.35,5.95-.7,10.35,1.78,12.07,4.84,3.36,16.11-3.56,25.65-15.75.3-.38.85-.45,1.23-.15.38.3.45.85.15,1.23-8.42,10.77-17.72,17.26-24.04,17.26Z"/>
      <path d="M30.7,25.38c-.06,0-.12,0-.18-.02l-3.52-.73c-.54-.11-.96-.51-1.12-1.03-.15-.52,0-1.08.37-1.46l1.19-1.18c.23-.22.52-.37.84-.41l11.69-1.6c.47-.07.92.27.98.75.06.48-.27.92-.75.98l-11.68,1.6-.69.74,3.04.63c.47.1.78.56.68,1.03-.09.41-.45.7-.86.7Z"/>
      <path d="M29.03,35.92c-1.01,0-2.02-.22-2.97-.67l-3.45-1.67c-.43-.2-.74-.61-.82-1.08s.08-.96.42-1.3l.87-.86c.36-.36.86-.5,1.35-.4l2.65.55c.5.1,1.01-.05,1.38-.41l16.82-16.62c.8-.79,1.81-1.32,2.91-1.54l1.99-.39c.82-.14,1.63.11,2.2.68.94.95.93,2.5-.02,3.44l-8.91,8.81c-.34.34-.9.34-1.23,0-.34-.34-.34-.9,0-1.23l8.91-8.81c.27-.27.27-.7,0-.97-.16-.17-.4-.24-.64-.19l-1.98.38c-.76.15-1.46.51-2.01,1.06l-16.82,16.62c-.78.77-1.89,1.1-2.96.87l-2.52-.52-.49.49,3.1,1.5c1.96.93,4.29.54,5.82-.97l1.86-1.84c.34-.34.9-.34,1.23,0,.34.34.34.9,0,1.23l-1.86,1.84c-1.31,1.29-3.06,1.97-4.84,1.97Z"/>
      <path d="M39.52,39.56c-.15,0-.3-.02-.45-.07-.52-.17-.9-.61-1-1.15l-1.85-10.33c-.09-.48.23-.93.71-1.01.48-.08.93.23,1.01.71l1.76,9.82.79-.79,1.46-12.98c.06-.48.49-.83.97-.77.48.06.82.49.77.97l-1.54,13.13c-.05.35-.19.65-.43.88l-1.17,1.16c-.28.28-.65.42-1.03.42Z"/>
    </g>
  </g>
</svg>