<?xml version="1.0" encoding="UTF-8"?>
<svg id="Layer_1" xmlns="http://www.w3.org/2000/svg" version="1.1" viewBox="0 0 59 59">
  <!-- Generator: Adobe Illustrator 29.6.1, SVG Export Plug-In . SVG Version: 2.1.1 Build 9)  -->
  <path d="M41.57,21.71c-.94-.94-2.48-.94-3.42,0l-10.39,10.38-4.34-4.34c-.94-.94-2.48-.94-3.42,0-.94.94-.94,2.48,0,3.42l6.05,6.05c.47.47,1.09.71,1.71.71s1.24-.24,1.71-.71l12.1-12.1c.94-.94.94-2.48,0-3.42Z"/>
  <path d="M56.29,27.08c-1.34,0-2.42,1.08-2.42,2.42,0,13.34-10.85,24.19-24.19,24.19S5.49,42.84,5.49,29.5,16.34,5.31,29.68,5.31c6.49,0,12.59,2.54,17.17,7.15.94.95,2.47.95,3.42.01.95-.94.95-2.47.01-3.42C44.79,3.51,37.47.47,29.68.47,13.67.47.65,13.49.65,29.5s13.02,29.03,29.03,29.03,29.03-13.02,29.03-29.03c0-1.34-1.08-2.42-2.42-2.42Z"/>
</svg>