<?xml version="1.0" encoding="UTF-8"?>
<svg id="Layer_1" xmlns="http://www.w3.org/2000/svg" version="1.1" viewBox="0 0 59 59">
  <!-- Generator: Adobe Illustrator 29.6.1, SVG Export Plug-In . SVG Version: 2.1.1 Build 9)  -->
  <path d="M56.11,36.6c-.98,0-1.77.79-1.77,1.77v12.42H4.66v-21.29h19.52c.98,0,1.77-.79,1.77-1.77s-.79-1.77-1.77-1.77H4.66v-7.1h19.52c.98,0,1.77-.79,1.77-1.77s-.79-1.77-1.77-1.77H4.66c-1.96,0-3.55,1.59-3.55,3.55v31.93c0,1.96,1.59,3.55,3.55,3.55h49.67c1.96,0,3.55-1.59,3.55-3.55v-12.42c0-.98-.79-1.77-1.77-1.77Z"/>
  <path d="M17.08,36.6h-7.1c-.98,0-1.77.79-1.77,1.77s.79,1.77,1.77,1.77h7.1c.98,0,1.77-.79,1.77-1.77s-.79-1.77-1.77-1.77Z"/>
  <path d="M56.81,10.13l-12.42-5.32c-.45-.19-.95-.19-1.4,0l-12.42,5.32c-.65.28-1.07.92-1.07,1.63v7.1c0,9.76,3.61,15.47,13.31,21.05.27.16.58.23.88.23s.61-.08.88-.23c9.7-5.57,13.31-11.28,13.31-21.05v-7.1c0-.71-.42-1.35-1.08-1.63ZM54.34,18.85c0,8.19-2.71,12.7-10.64,17.46-7.93-4.77-10.64-9.27-10.64-17.46v-5.93l10.64-4.56,10.64,4.56v5.93Z"/>
  <path d="M50.13,15.69c-.76-.6-1.88-.49-2.49.28l-5.58,6.98-2.21-3.3c-.55-.82-1.65-1.03-2.46-.49-.81.54-1.04,1.65-.49,2.46l3.55,5.32c.32.47.83.76,1.4.79h.07c.54,0,1.05-.24,1.39-.67l7.1-8.87c.61-.77.49-1.88-.28-2.49Z"/>
</svg>